<?xml version="1.0" encoding="utf-8"?>
<!-- Generator: Adobe Illustrator 23.0.2, SVG Export Plug-In . SVG Version: 6.00 Build 0)  -->
<svg version="1.1" id="Layer_1" xmlns="http://www.w3.org/2000/svg" xmlns:xlink="http://www.w3.org/1999/xlink" x="0px" y="0px"
	 viewBox="0 0 170.1 85" style="enable-background:new 0 0 170.1 85;" xml:space="preserve">
<style type="text/css">
	.st0{fill:#FFCB05;}
	.st1{fill:#FFFFFF;}
	.st2{fill:#414042;}
</style>
<g>
	<path class="st0" d="M40.7,82.4c-0.3,0.1-0.7,0.2-1.3,0.3s-1.2,0.2-1.9,0.2c-1.3,0-2.3-0.2-2.9-0.7c-0.6-0.5-0.9-1.3-0.9-2.6V65.1
		c0-1.5-0.4-2.6-1.2-3.2c-0.8-0.6-1.9-1-3.2-1c-0.9,0-1.8,0.2-2.6,0.5c-0.9,0.3-1.6,0.7-2.3,1.3c0.1,0.5,0.2,1,0.2,1.6v18.2
		c-0.3,0.1-0.7,0.2-1.3,0.3S22.1,83,21.4,83c-1.3,0-2.3-0.2-2.9-0.7s-0.9-1.3-0.9-2.6V65.1c0-1.5-0.4-2.6-1.3-3.2
		c-0.9-0.6-1.9-1-3.3-1c-0.9,0-1.8,0.1-2.6,0.5C9.6,61.7,9,62,8.5,62.3v20.2c-0.3,0.1-0.8,0.2-1.3,0.3S6,83,5.3,83
		C4,83,3,82.8,2.4,82.3c-0.7-0.6-1-1.5-1-2.7V61.7c0-0.9,0.2-1.6,0.6-2.1s0.9-1.1,1.7-1.6c1.1-0.7,2.5-1.4,4.2-1.9s3.5-0.8,5.3-0.8
		c3.4,0,6.1,0.9,8.3,2.7c1.1-0.8,2.3-1.4,3.7-2s3-0.8,4.9-0.8c1.4,0,2.8,0.2,4.1,0.5c1.3,0.4,2.4,0.9,3.4,1.7s1.7,1.8,2.3,3
		s0.8,2.6,0.8,4.3V82.4L40.7,82.4z"/>
	<path class="st0" d="M52.1,72.5c0.5,1.9,1.5,3.3,2.9,4.1c1.4,0.9,3.2,1.3,5.2,1.3c1.6,0,3-0.2,4.3-0.7c1.3-0.5,2.4-1,3.2-1.5
		c0.5,0.3,1,0.7,1.3,1.2s0.5,1.1,0.5,1.7c0,0.7-0.3,1.4-0.8,2s-1.2,1.1-2.1,1.5s-1.9,0.7-3.1,1c-1.2,0.2-2.5,0.3-3.9,0.3
		c-2.2,0-4.2-0.3-6-0.9S50.3,81,49,79.8s-2.3-2.7-3-4.5s-1.1-3.9-1.1-6.2c0-2.3,0.4-4.3,1.1-6c0.7-1.7,1.7-3.1,2.9-4.3
		c1.2-1.1,2.6-2,4.2-2.6s3.3-0.8,5.1-0.8s3.5,0.3,5,0.9c1.5,0.6,2.8,1.4,3.9,2.4s1.9,2.3,2.5,3.7s0.9,3,0.9,4.7c0,1-0.3,1.8-0.8,2.3
		s-1.3,0.9-2.3,1L52.1,72.5z M58.3,60.6c-1.8,0-3.3,0.6-4.6,1.8s-1.9,2.9-2.1,5.2l12.5-1.9c-0.1-1.4-0.7-2.6-1.6-3.6
		C61.5,61.1,60.1,60.6,58.3,60.6z"/>
	<path class="st0" d="M85,55.3c3.6,0,6.5,0.8,8.7,2.3s3.3,4,3.3,7.3v12.9c0,0.9-0.2,1.6-0.7,2.1s-1,1-1.7,1.4c-1,0.6-2.4,1.1-4,1.5
		s-3.4,0.6-5.5,0.6c-3.7,0-6.6-0.7-8.8-2.1c-2.1-1.4-3.2-3.6-3.2-6.4c0-2.5,0.8-4.4,2.4-5.7c1.6-1.3,3.9-2.1,6.9-2.4L90,66v-1
		c0-1.4-0.5-2.5-1.5-3.1c-1-0.7-2.5-1-4.3-1c-1.5,0-2.9,0.2-4.2,0.5s-2.6,0.8-3.7,1.3c-0.4-0.3-0.8-0.7-1-1.2s-0.4-1-0.4-1.6
		c0-0.7,0.2-1.4,0.5-1.8s0.9-0.9,1.7-1.3c1.1-0.5,2.3-0.8,3.7-1S83.6,55.3,85,55.3z M85.2,78c1.1,0,2.1-0.1,3-0.3
		c0.9-0.2,1.5-0.5,2-0.8v-6.2l-5.4,0.5c-1.5,0.1-2.6,0.5-3.4,1s-1.2,1.3-1.2,2.4s0.4,1.9,1.2,2.5C82.1,77.7,83.4,78,85.2,78z"/>
	<path class="st0" d="M108.6,82.7c-0.6,0.1-1.2,0.2-1.9,0.2c-1.3,0-2.3-0.2-2.9-0.7s-0.9-1.3-0.9-2.6V36.3c0.3-0.1,0.7-0.2,1.3-0.3
		c0.6-0.1,1.2-0.1,1.9-0.1c1.3,0,2.3,0.2,2.9,0.7s0.9,1.3,0.9,2.6v43.3C109.6,82.5,109.1,82.6,108.6,82.7z"/>
	<path class="st0" d="M121.6,72.5c0.5,1.9,1.5,3.3,2.9,4.1c1.4,0.9,3.2,1.3,5.2,1.3c1.6,0,3-0.2,4.3-0.7s2.4-1,3.2-1.5
		c0.5,0.3,1,0.7,1.3,1.2s0.5,1.1,0.5,1.7c0,0.7-0.3,1.4-0.8,2s-1.2,1.1-2.1,1.5s-1.9,0.7-3.1,1c-1.2,0.2-2.5,0.3-3.9,0.3
		c-2.2,0-4.2-0.3-6-0.9s-3.3-1.5-4.6-2.7c-1.3-1.2-2.3-2.7-3-4.5s-1.1-3.9-1.1-6.2c0-2.3,0.4-4.3,1.1-6s1.7-3.1,2.9-4.3
		s2.6-2,4.2-2.6s3.3-0.8,5.1-0.8c1.8,0,3.5,0.3,5,0.9c1.5,0.6,2.8,1.4,3.9,2.4s1.9,2.3,2.5,3.7s0.9,3,0.9,4.7c0,1-0.3,1.8-0.8,2.3
		s-1.3,0.9-2.3,1L121.6,72.5z M127.8,60.6c-1.8,0-3.3,0.6-4.6,1.8s-1.9,2.9-2.1,5.2l12.4-1.8c-0.1-1.4-0.7-2.6-1.6-3.6
		C131,61.1,129.7,60.6,127.8,60.6z"/>
	<path class="st0" d="M150,72.5c0.5,1.9,1.5,3.3,2.9,4.1c1.4,0.9,3.2,1.3,5.2,1.3c1.6,0,3-0.2,4.3-0.7s2.4-1,3.2-1.5
		c0.5,0.3,1,0.7,1.3,1.2s0.5,1.1,0.5,1.7c0,0.7-0.3,1.4-0.8,2s-1.2,1.1-2.1,1.5s-1.9,0.7-3.1,1c-1.2,0.2-2.5,0.3-3.9,0.3
		c-2.2,0-4.2-0.3-6-0.9s-3.3-1.5-4.6-2.7s-2.3-2.7-3-4.5s-1.1-3.9-1.1-6.2c0-2.3,0.4-4.3,1.1-6s1.7-3.1,2.9-4.3s2.6-2,4.2-2.6
		s3.3-0.8,5.1-0.8s3.5,0.3,5,0.9c1.5,0.6,2.8,1.4,3.9,2.4s1.9,2.3,2.5,3.7s0.9,3,0.9,4.7c0,1-0.3,1.8-0.8,2.3s-1.3,0.9-2.3,1
		L150,72.5z M156.2,60.6c-1.8,0-3.3,0.6-4.6,1.8s-1.9,2.9-2.1,5.2l12.4-1.8c-0.1-1.4-0.7-2.6-1.6-3.6
		C159.4,61.1,158,60.6,156.2,60.6z"/>
</g>
<path class="st1" d="M95,31.7c-2.8-3.4-6.7-5.5-10.4-5.5c-0.4,0-0.8,0-1.1,0.1c-1.5-1-3.2-1.6-5-1.6c-0.5,0-1,0.1-1.4,0.1V4.1
	c0-1.3-1.1-2.4-2.4-2.4H51.5c-1.3,0-2.4,1.1-2.4,2.4v3.7c-1.1-0.5-2.3-1-3.5-1.4c-1.4-0.5-3-0.8-4.5-1.1c-3.1-0.5-6.5-0.5-9.6,0
	C30,5.5,28.4,5.9,27,6.4c-1.4,0.4-2.8,1-4.1,1.7c-1.3,0.7-2.4,1.3-3.5,2.1s-2,1.7-2.8,2.6c-0.8,0.9-1.5,1.9-2.1,3L14.4,16
	c-0.4,1-0.7,1.8-0.9,2.9c-0.2,0.9-0.4,2-0.6,3.6c-0.6,1.4-2.1,2.2-3.7,3.1l-0.4,0.2c-1.6,0.9-4.1,2.2-4.4,5.3v5.4
	c0,1.7,0.2,3.2,0.7,4.3C5.4,41.6,5.8,42,6,42.2c1.2,1.7,3.4,3.2,6.4,4.3c2.3,0.9,5.2,1.5,8.4,2c2.4,0.3,5,0.5,8,0.5
	c0.6,0,1.1,0,1.7,0c0.9,0,1.8,0,2.6,0c0.7,0,1.3,0,1.9,0c1.9-0.1,3.8-0.3,5.6-0.6c2-0.4,3.7-0.9,5.3-1.7c1.1-0.5,2.2-1.1,3.2-1.8
	v1.5c0,1.3,1.1,2.4,2.4,2.4h21.4c1.6,1.2,3.5,1.9,5.5,1.9c2.1,0,4-0.8,5.7-2.2c1.8,0.9,3.6,1.4,5.5,1.4c2.1,0,4-0.6,5.5-1.9
	c2.2-1.7,3.3-4.4,3.3-7.6C98.3,37.4,97.1,34.3,95,31.7z"/>
<path class="st2" d="M35.5,15.7c-3.7,0-6.6,1.7-6.6,3.9c0,2.2,2.9,3.9,6.6,3.9c3.7,0,6.6-1.7,6.6-3.9C42.2,17.4,39.2,15.7,35.5,15.7
	z M35.5,22.4c-3,0-5.5-1.3-5.5-2.8s2.5-2.8,5.5-2.8s5.5,1.3,5.5,2.8S38.5,22.4,35.5,22.4z"/>
<path class="st2" d="M95,31.7c-2.8-3.4-6.7-5.5-10.4-5.5c-0.4,0-0.8,0-1.1,0.1c-1.5-1-3.2-1.6-5-1.6c-0.5,0-1,0.1-1.4,0.1V4.1
	c0-1.3-1.1-2.4-2.4-2.4H51.5c-1.3,0-2.4,1.1-2.4,2.4v3.7c-1.1-0.5-2.3-1-3.5-1.4c-1.4-0.5-3-0.8-4.5-1.1c-3.1-0.5-6.5-0.5-9.6,0
	C30,5.5,28.4,5.9,27,6.4c-1.4,0.4-2.8,1-4.1,1.7c-1.3,0.7-2.4,1.3-3.5,2.1s-2,1.7-2.8,2.6c-0.8,0.9-1.5,1.9-2.1,3L14.4,16
	c-0.4,1-0.7,1.8-0.9,2.9c-0.2,0.9-0.4,2-0.6,3.6c-0.6,1.4-2.1,2.2-3.7,3.1l-0.4,0.2c-1.6,0.9-4.1,2.2-4.4,5.3v5.4
	c0,1.7,0.2,3.2,0.7,4.3C5.4,41.6,5.8,42,6,42.2c1.2,1.7,3.4,3.2,6.4,4.3c2.3,0.9,5.2,1.5,8.4,2c2.4,0.3,5,0.5,8,0.5
	c0.6,0,1.1,0,1.7,0c0.9,0,1.8,0,2.6,0c0.7,0,1.3,0,1.9,0c1.9-0.1,3.8-0.3,5.6-0.6c2-0.4,3.7-0.9,5.3-1.7c1.1-0.5,2.2-1.1,3.2-1.8
	v1.5c0,1.3,1.1,2.4,2.4,2.4h21.4c1.6,1.2,3.5,1.9,5.5,1.9c2.1,0,4-0.8,5.7-2.2c1.8,0.9,3.6,1.4,5.5,1.4c2.1,0,4-0.6,5.5-1.9
	c2.2-1.7,3.3-4.4,3.3-7.6C98.3,37.4,97.1,34.3,95,31.7z M45,44.6c-1.4,0.7-2.9,1.1-4.7,1.5c-1.7,0.3-3.5,0.5-5.2,0.6
	c-0.6,0-1.2,0-1.9,0c-1.3,0-2.7,0-4.3,0c-2.9,0-5.4-0.2-7.8-0.5c-3.1-0.4-5.7-1-7.9-1.8c-2.5-0.9-4.3-2.1-5.3-3.4
	c0,0-0.1-0.1-0.1-0.2c-0.1-0.2-0.3-0.4-0.5-0.8c-0.3-0.8-0.5-1.9-0.5-3.3v-5.3c0.1-1.5,1.1-2.2,3.1-3.3l0.4-0.4
	c1.9-1,3.9-2.1,4.8-4.5l0.1-0.3c0.2-1.6,0.4-2.7,0.6-3.6c0.2-0.8,0.4-1.5,0.8-2.4c0.5-1,1.1-1.8,1.8-2.6s1.5-1.5,2.5-2.3
	c1-0.7,2.1-1.4,3.2-2c1.2-0.6,2.4-1.1,3.7-1.5c1.3-0.4,2.7-0.8,4.1-1c2.9-0.4,6-0.4,8.9,0c1.4,0.2,2.8,0.5,4.1,1
	c1.3,0.4,2.6,0.9,3.7,1.5c0.2,0.1,0.3,0.2,0.5,0.3V13c-0.1,0-0.1-0.1-0.2-0.1c-1.7-1.1-3.6-2.4-5.9-3C41,9.2,38.5,9,35.3,9
	c-2.8,0-5.5,0.6-7.5,1.2c-2.2,0.6-3.9,1.7-5.5,2.8l-0.5,0.3c-1.6,1.3-2.6,2.3-3.3,4v0.1c-0.5,1.8-0.6,2.7-0.6,3.6
	c-0.1,0.8-0.1,1.6-0.6,3.2c-0.8,1.8-2.4,2.7-4.4,3.8c-0.8,0.4-1.5,0.9-2.3,1.4l-0.1,0.1c-0.6,0.6-1,1.5-1,2.6c0,0.8,0.2,2,0.8,2.7
	c0.8,1.1,3.1,2.7,12.8,3.8c2.3,0.3,4.6,0.3,6.5,0.3c0.9,0,1.8,0,2.7,0h1.8c3.3-0.2,6.1-0.8,8.5-1.9c0.6-0.2,1.1-0.4,1.5-0.6
	c1.6-0.6,2.8-1.1,4.7-2.6l0.3-0.3v8.5C47.8,43,46.4,43.9,45,44.6z M49.1,23.1c0,0.1-0.1,0.1-0.2,0.1c-0.3,1.2-1,2.4-2,3.5
	c-1.2,1.3-2.8,2.5-4.6,3.4c0.2,0.3,0.4,0.7,0.6,1c1.9-1,3.6-2.2,4.8-3.6c0.6-0.7,1-1.3,1.4-2v5.1c-0.3,0.3-0.7,0.6-1.1,0.9L47.4,32
	c-1.6,1.3-2.5,1.7-4.1,2.3c-0.5,0.2-1,0.4-1.6,0.6c-2.2,0.9-4.8,1.5-7.7,1.7h-1.7c-0.9,0-1.8,0-2.7,0c-1.9,0-4.1,0-6.3-0.3
	c-9.3-1.1-10.9-2.5-11.2-2.9L12,33.3c-0.3-0.3-0.3-1.6,0-2c0.7-0.5,1.4-0.9,2.1-1.2c2.1-1.2,4.3-2.5,5.4-5l0.1-0.2
	c0.5-1.9,0.6-2.9,0.6-3.7c0.1-0.8,0.1-1.5,0.6-3.1c0.5-1.2,1.2-1.9,2.4-2.9l0.4-0.2c1.5-0.9,3-1.9,4.8-2.4c1.9-0.5,4.4-1.1,6.9-1.1
	c3,0,5.3,0.2,7.1,0.7c2,0.5,3.7,1.7,5.4,2.8c0.5,0.3,0.9,0.6,1.3,0.9V23.1z M51.5,4h23.2v2.9H51.5V4z M51.5,8.1h23.1v7.1H51.5V8.1z
	 M51.5,46.2V16.4h23.1v9.1c-1,0.5-1.9,1.2-2.7,2c0.4-0.7,0.6-1.4,0.6-2.1c0-3.4-4.1-6.1-9.3-6.1c-5.1,0-9.3,2.8-9.3,6.1
	c0,3.4,4.2,6.1,9.3,6.1c3.1,0,5.8-1,7.5-2.5c-1.6,2.3-2.6,5.3-2.6,8.6c0,3.3,1,6.3,2.6,8.6H51.5z M71.3,25.4c0,2.7-3.6,5-8.1,5
	s-8.1-2.2-8.1-5c0-2.7,3.6-5,8.1-5C67.7,20.5,71.3,22.7,71.3,25.4z M78.4,48.4c-4.3,0-7.9-4.9-7.9-10.7c0-5.9,3.5-10.7,7.9-10.7
	s7.9,4.8,7.9,10.7C86.3,43.6,82.8,48.4,78.4,48.4z M93.6,46.2c-1.1,0.9-2.5,1.4-4,1.4c-1.2,0-2.5-0.3-3.8-0.9c1.8-2.4,2.9-5.5,2.9-9
	s-1.1-6.7-2.9-9c2.6,0.4,5.4,2.1,7.3,4.5c1.8,2.2,2.8,4.8,2.9,7.4C96,42.9,95.2,44.9,93.6,46.2z"/>
<path class="st2" d="M73.4,38.1h1.2c0.1-3.2,1.5-6,3.6-7.1c-0.2-0.3-0.4-0.6-0.7-1C75.1,31.4,73.5,34.5,73.4,38.1z"/>
</svg>
