<?xml version="1.0" encoding="utf-8"?>
<!-- Generator: Adobe Illustrator 23.0.2, SVG Export Plug-In . SVG Version: 6.00 Build 0)  -->
<svg version="1.1" id="Layer_1" xmlns="http://www.w3.org/2000/svg" xmlns:xlink="http://www.w3.org/1999/xlink" x="0px" y="0px"
	 viewBox="0 0 283.46 141.73" style="enable-background:new 0 0 283.46 141.73;" xml:space="preserve">
<style type="text/css">
	.st0{fill:#FFFFFF;}
</style>
<g>
	<g>
		<path class="st0" d="M89.99,120.85c0.87,3.56,2.57,6.19,5.1,7.91c2.53,1.72,5.76,2.57,9.69,2.57c2.62,0,5.02-0.41,7.21-1.22
			c2.18-0.81,3.93-1.69,5.24-2.62c1.75,1,2.62,2.4,2.62,4.21c0,1.06-0.41,2.04-1.22,2.95c-0.81,0.91-1.92,1.68-3.32,2.34
			s-3.06,1.17-4.96,1.54c-1.9,0.37-3.95,0.56-6.13,0.56c-3.62,0-6.91-0.5-9.88-1.5c-2.96-1-5.51-2.5-7.63-4.49
			c-2.12-2-3.76-4.46-4.92-7.4c-1.16-2.93-1.73-6.33-1.73-10.2c0-3.74,0.56-7.04,1.68-9.88c1.12-2.84,2.65-5.21,4.59-7.11
			c1.93-1.9,4.21-3.35,6.83-4.35c2.62-1,5.43-1.5,8.42-1.5c3,0,5.72,0.48,8.19,1.45c2.46,0.97,4.59,2.31,6.37,4.03
			c1.78,1.72,3.15,3.76,4.12,6.13c0.97,2.37,1.45,4.96,1.45,7.77c0,1.56-0.37,2.7-1.12,3.42c-0.75,0.72-1.84,1.2-3.28,1.45
			L89.99,120.85z M101.6,100.26c-3.43,0-6.29,1.16-8.57,3.46c-2.28,2.31-3.48,5.62-3.6,9.92l23.03-3.28
			c-0.25-2.81-1.28-5.2-3.09-7.16C107.56,101.24,104.97,100.26,101.6,100.26z"/>
		<path class="st0" d="M145.69,92.67c5.8,0,10.42,1.26,13.85,3.79s5.15,6.51,5.15,11.94v21.81c0,1.44-0.33,2.54-0.98,3.32
			c-0.65,0.78-1.54,1.51-2.67,2.2c-1.62,0.94-3.71,1.75-6.27,2.43c-2.56,0.69-5.52,1.03-8.89,1.03c-6.05,0-10.78-1.19-14.18-3.56
			c-3.4-2.37-5.1-5.87-5.1-10.48c0-4.12,1.33-7.27,3.98-9.45c2.65-2.18,6.47-3.53,11.47-4.03l13.01-1.31v-2.06
			c0-2.75-0.89-4.74-2.67-5.99c-1.78-1.25-4.26-1.87-7.44-1.87c-2.5,0-4.9,0.34-7.21,1.03c-2.31,0.69-4.37,1.47-6.18,2.34
			c-0.63-0.5-1.16-1.11-1.59-1.83c-0.44-0.72-0.66-1.51-0.66-2.39c0-1.06,0.26-1.93,0.8-2.62c0.53-0.69,1.36-1.28,2.48-1.78
			c1.75-0.87,3.74-1.51,5.99-1.92C140.82,92.88,143.19,92.67,145.69,92.67z M145.88,131.52c2.18,0,4.09-0.22,5.71-0.66
			s2.78-0.9,3.46-1.4v-11.89l-10.21,1.03c-2.87,0.31-5.02,0.95-6.46,1.92c-1.44,0.97-2.15,2.45-2.15,4.45
			c0,2.06,0.78,3.67,2.34,4.82C140.14,130.95,142.57,131.52,145.88,131.52z"/>
		<path class="st0" d="M180.89,138.36c-1.81,0-3.15-0.34-4.03-1.03c-0.88-0.69-1.31-1.84-1.31-3.46V77.04
			c0.44-0.12,1.06-0.28,1.87-0.47c0.81-0.19,1.69-0.28,2.62-0.28c1.81,0,3.15,0.34,4.03,1.03c0.87,0.69,1.31,1.84,1.31,3.46v56.82
			c-0.5,0.19-1.14,0.36-1.92,0.51C182.68,138.28,181.82,138.36,180.89,138.36z"/>
		<path class="st0" d="M204.1,120.85c0.87,3.56,2.57,6.19,5.1,7.91c2.53,1.72,5.76,2.57,9.69,2.57c2.62,0,5.02-0.41,7.21-1.22
			c2.18-0.81,3.93-1.69,5.24-2.62c1.75,1,2.62,2.4,2.62,4.21c0,1.06-0.41,2.04-1.22,2.95c-0.81,0.91-1.92,1.68-3.32,2.34
			s-3.06,1.17-4.96,1.54c-1.9,0.37-3.95,0.56-6.13,0.56c-3.62,0-6.91-0.5-9.88-1.5c-2.96-1-5.51-2.5-7.63-4.49
			c-2.12-2-3.76-4.46-4.91-7.4c-1.16-2.93-1.73-6.33-1.73-10.2c0-3.74,0.56-7.04,1.69-9.88c1.12-2.84,2.65-5.21,4.59-7.11
			c1.93-1.9,4.21-3.35,6.83-4.35c2.62-1,5.43-1.5,8.43-1.5c2.99,0,5.72,0.48,8.19,1.45c2.46,0.97,4.59,2.31,6.37,4.03
			c1.78,1.72,3.15,3.76,4.12,6.13c0.97,2.37,1.45,4.96,1.45,7.77c0,1.56-0.37,2.7-1.12,3.42c-0.75,0.72-1.84,1.2-3.28,1.45
			L204.1,120.85z M215.71,100.26c-3.43,0-6.29,1.16-8.57,3.46c-2.28,2.31-3.48,5.62-3.6,9.92l23.03-3.28
			c-0.25-2.81-1.28-5.2-3.09-7.16C221.67,101.24,219.08,100.26,215.71,100.26z"/>
		<path class="st0" d="M251.09,120.85c0.87,3.56,2.57,6.19,5.1,7.91c2.53,1.72,5.76,2.57,9.69,2.57c2.62,0,5.02-0.41,7.21-1.22
			c2.18-0.81,3.93-1.69,5.24-2.62c1.75,1,2.62,2.4,2.62,4.21c0,1.06-0.41,2.04-1.22,2.95c-0.81,0.91-1.92,1.68-3.32,2.34
			s-3.06,1.17-4.96,1.54c-1.9,0.37-3.95,0.56-6.13,0.56c-3.62,0-6.91-0.5-9.88-1.5c-2.96-1-5.51-2.5-7.63-4.49
			c-2.12-2-3.76-4.46-4.92-7.4c-1.15-2.93-1.73-6.33-1.73-10.2c0-3.74,0.56-7.04,1.68-9.88c1.12-2.84,2.65-5.21,4.59-7.11
			c1.93-1.9,4.21-3.35,6.83-4.35c2.62-1,5.43-1.5,8.42-1.5s5.72,0.48,8.19,1.45c2.46,0.97,4.59,2.31,6.37,4.03
			c1.78,1.72,3.15,3.76,4.12,6.13c0.97,2.37,1.45,4.96,1.45,7.77c0,1.56-0.38,2.7-1.12,3.42c-0.75,0.72-1.84,1.2-3.28,1.45
			L251.09,120.85z M262.7,100.26c-3.43,0-6.29,1.16-8.56,3.46c-2.28,2.31-3.48,5.62-3.61,9.92l23.03-3.28
			c-0.25-2.81-1.28-5.2-3.09-7.16S266.07,100.26,262.7,100.26z"/>
	</g>
	<g>
		<path class="st0" d="M45.34,92.71c-2.25,0-4.07,1.82-4.07,4.07v40.37c0,2.25,1.82,4.07,4.07,4.07c2.25,0,4.07-1.82,4.07-4.07
			V96.78C49.41,94.53,47.58,92.71,45.34,92.71z"/>
		<path class="st0" d="M24.99,92.71c-2.25,0-4.07,1.82-4.07,4.07l0,40.37c0,2.25,0.36,4.07,2.61,4.07c2.25,0,5.53-1.82,5.53-4.07
			l0-40.37C29.05,94.53,27.23,92.71,24.99,92.71z"/>
		<path class="st0" d="M0.64,137.56c0,2.25,1.82,4.07,4.07,4.07s4.07-1.82,4.07-4.07l0-47.47c0-2.97,2.42-5.39,5.38-5.39h13.37h0.02
			c1.48-0.18,4.16-1.06,4.15-5.07l0.02-68.48c0-1.6,1.3-2.91,2.91-2.91h1.06c1.58,0,2.9,1.33,2.9,2.91l0.02,68.48
			c0,4.01,2.68,4.89,4.15,5.07h0.03h13.37c0,0,0,0,0,0c1.43,0,2.77,0.56,3.79,1.58c1.02,1.02,1.58,2.37,1.59,3.8l0,47.47
			c0,2.25,1.82,4.07,4.07,4.07c2.25,0,4.07-1.82,4.07-4.07l0-47.47c0-3.6-1.41-6.99-3.97-9.55c-2.56-2.56-5.95-3.97-9.55-3.97h-8.77
			h-0.69c0-0.08,0.03-0.16,0.03-0.25l0-65.17c0-6.09-4.95-11.04-11.04-11.04h-1.06c-6.09,0-11.04,4.95-11.04,11.04l0,65.17
			c0,0.09,0.02,0.16,0.03,0.25h-9.45c-7.45,0-13.51,6.06-13.52,13.52L0.64,137.56z"/>
	</g>
</g>
<g>
</g>
<g>
</g>
<g>
</g>
<g>
</g>
<g>
</g>
<g>
</g>
</svg>
