<?xml version="1.0" encoding="utf-8"?>
<!-- Generator: Adobe Illustrator 23.0.2, SVG Export Plug-In . SVG Version: 6.00 Build 0)  -->
<svg version="1.1" id="Layer_1" xmlns="http://www.w3.org/2000/svg" xmlns:xlink="http://www.w3.org/1999/xlink" x="0px" y="0px"
	 viewBox="0 0 167.2 81.6" style="enable-background:new 0 0 167.2 81.6;" xml:space="preserve">
<style type="text/css">
	.st0{fill:#DA1C5C;}
	.st1{fill:#414042;}
	.st2{fill:#FFFFFF;}
</style>
<g>
	<g>
		<path class="st0" d="M39.3,80.7C39,80.8,38.6,80.9,38,81s-1.2,0.2-1.9,0.2c-1.3,0-2.3-0.2-2.9-0.7c-0.6-0.5-0.9-1.3-0.9-2.6V63.4
			c0-1.5-0.4-2.6-1.2-3.2s-1.9-1-3.2-1c-0.9,0-1.8,0.2-2.6,0.5C24.4,60,23.7,60.4,23,61c0.1,0.5,0.2,1,0.2,1.6v18.2
			c-0.3,0.1-0.7,0.2-1.3,0.3s-1.2,0.2-1.9,0.2c-1.3,0-2.3-0.2-2.9-0.7c-0.6-0.5-0.9-1.3-0.9-2.6V63.4c0-1.5-0.4-2.6-1.3-3.2
			s-1.9-1-3.3-1c-0.9,0-1.8,0.1-2.6,0.5c-0.8,0.3-1.4,0.6-1.9,0.9v20.2c-0.3,0.1-0.8,0.2-1.3,0.3s-1.2,0.2-1.9,0.2
			c-1.3,0-2.3-0.2-2.9-0.7C0.3,80,0,79.1,0,77.9V60c0-0.9,0.2-1.6,0.6-2.1s0.9-1.1,1.7-1.6c1.1-0.7,2.5-1.4,4.2-1.9s3.5-0.8,5.3-0.8
			c3.4,0,6.1,0.9,8.3,2.7c1.1-0.8,2.3-1.4,3.7-2s3-0.8,4.9-0.8c1.4,0,2.8,0.2,4.1,0.5c1.3,0.4,2.4,0.9,3.4,1.7s1.7,1.8,2.3,3
			c0.6,1.2,0.8,2.6,0.8,4.3L39.3,80.7L39.3,80.7z"/>
		<path class="st0" d="M50.7,70.8c0.5,1.9,1.5,3.3,2.9,4.1c1.4,0.9,3.2,1.3,5.2,1.3c1.6,0,3-0.2,4.3-0.7c1.3-0.5,2.4-1,3.2-1.5
			c0.5,0.3,1,0.7,1.3,1.2c0.3,0.5,0.5,1.1,0.5,1.7c0,0.7-0.3,1.4-0.8,2s-1.2,1.1-2.1,1.5s-1.9,0.7-3.1,1c-1.2,0.2-2.5,0.3-3.9,0.3
			c-2.2,0-4.2-0.3-6-0.9c-1.8-0.6-3.3-1.5-4.6-2.7c-1.3-1.2-2.3-2.7-3-4.5c-0.7-1.8-1.1-3.9-1.1-6.2c0-2.3,0.4-4.3,1.1-6
			c0.7-1.7,1.7-3.1,2.9-4.3c1.2-1.1,2.6-2,4.2-2.6s3.3-0.8,5.1-0.8c1.8,0,3.5,0.3,5,0.9c1.5,0.6,2.8,1.4,3.9,2.4s1.9,2.3,2.5,3.7
			c0.6,1.4,0.9,3,0.9,4.7c0,1-0.3,1.8-0.8,2.3s-1.3,0.9-2.3,1L50.7,70.8z M56.9,58.9c-1.8,0-3.3,0.6-4.6,1.8s-1.9,2.9-2.1,5.2
			L62.7,64c-0.1-1.4-0.7-2.6-1.6-3.6C60.1,59.4,58.7,58.9,56.9,58.9z"/>
		<path class="st0" d="M83.6,53.6c3.6,0,6.5,0.8,8.7,2.3s3.3,4,3.3,7.3v12.9c0,0.9-0.2,1.6-0.7,2.1s-1,1-1.7,1.4
			c-1,0.6-2.4,1.1-4,1.5s-3.4,0.6-5.5,0.6c-3.7,0-6.6-0.7-8.8-2.1c-2.1-1.4-3.2-3.6-3.2-6.4c0-2.5,0.8-4.4,2.4-5.7
			c1.6-1.3,3.9-2.1,6.9-2.4l7.6-0.8v-1c0-1.4-0.5-2.5-1.5-3.1c-1-0.7-2.5-1-4.3-1c-1.5,0-2.9,0.2-4.2,0.5s-2.6,0.8-3.7,1.3
			c-0.4-0.3-0.8-0.7-1-1.2s-0.4-1-0.4-1.6c0-0.7,0.2-1.4,0.5-1.8s0.9-0.9,1.7-1.3c1.1-0.5,2.3-0.8,3.7-1S82.2,53.6,83.6,53.6z
			 M83.8,76.3c1.1,0,2.1-0.1,3-0.3c0.9-0.2,1.5-0.5,2-0.8V69l-5.4,0.5c-1.5,0.1-2.6,0.5-3.4,1s-1.2,1.3-1.2,2.4s0.4,1.9,1.2,2.5
			C80.7,76,82,76.3,83.8,76.3z"/>
		<path class="st0" d="M107.2,81c-0.6,0.1-1.2,0.2-1.9,0.2c-1.3,0-2.3-0.2-2.9-0.7c-0.6-0.5-0.9-1.3-0.9-2.6V44.6
			c0.3-0.1,0.7-0.2,1.3-0.3c0.6-0.1,1.2-0.1,1.9-0.1c1.3,0,2.3,0.2,2.9,0.7c0.6,0.5,0.9,1.3,0.9,2.6v33.3
			C108.2,80.8,107.7,80.9,107.2,81z"/>
		<path class="st0" d="M120.2,70.8c0.5,1.9,1.5,3.3,2.9,4.1c1.4,0.9,3.2,1.3,5.2,1.3c1.6,0,3-0.2,4.3-0.7c1.3-0.5,2.4-1,3.2-1.5
			c0.5,0.3,1,0.7,1.3,1.2c0.3,0.5,0.5,1.1,0.5,1.7c0,0.7-0.3,1.4-0.8,2s-1.2,1.1-2.1,1.5s-1.9,0.7-3.1,1c-1.2,0.2-2.5,0.3-3.9,0.3
			c-2.2,0-4.2-0.3-6-0.9c-1.8-0.6-3.3-1.5-4.6-2.7c-1.3-1.2-2.3-2.7-3-4.5c-0.7-1.8-1.1-3.9-1.1-6.2c0-2.3,0.4-4.3,1.1-6
			s1.7-3.1,2.9-4.3s2.6-2,4.2-2.6s3.3-0.8,5.1-0.8c1.8,0,3.5,0.3,5,0.9c1.5,0.6,2.8,1.4,3.9,2.4s1.9,2.3,2.5,3.7
			c0.6,1.4,0.9,3,0.9,4.7c0,1-0.3,1.8-0.8,2.3s-1.3,0.9-2.3,1L120.2,70.8z M126.4,58.9c-1.8,0-3.3,0.6-4.6,1.8s-1.9,2.9-2.1,5.2
			l12.4-1.8c-0.1-1.4-0.7-2.6-1.6-3.6C129.6,59.4,128.3,58.9,126.4,58.9z"/>
		<path class="st0" d="M148.6,70.8c0.5,1.9,1.5,3.3,2.9,4.1c1.4,0.9,3.2,1.3,5.2,1.3c1.6,0,3-0.2,4.3-0.7c1.3-0.5,2.4-1,3.2-1.5
			c0.5,0.3,1,0.7,1.3,1.2c0.3,0.5,0.5,1.1,0.5,1.7c0,0.7-0.3,1.4-0.8,2s-1.2,1.1-2.1,1.5s-1.9,0.7-3.1,1c-1.2,0.2-2.5,0.3-3.9,0.3
			c-2.2,0-4.2-0.3-6-0.9c-1.8-0.6-3.3-1.5-4.6-2.7c-1.3-1.2-2.3-2.7-3-4.5c-0.7-1.8-1.1-3.9-1.1-6.2c0-2.3,0.4-4.3,1.1-6
			s1.7-3.1,2.9-4.3s2.6-2,4.2-2.6s3.3-0.8,5.1-0.8c1.8,0,3.5,0.3,5,0.9c1.5,0.6,2.8,1.4,3.9,2.4s1.9,2.3,2.5,3.7
			c0.6,1.4,0.9,3,0.9,4.7c0,1-0.3,1.8-0.8,2.3s-1.3,0.9-2.3,1L148.6,70.8z M154.8,58.9c-1.8,0-3.3,0.6-4.6,1.8s-1.9,2.9-2.1,5.2
			l12.4-1.8c-0.1-1.4-0.7-2.6-1.6-3.6C158,59.4,156.6,58.9,154.8,58.9z"/>
	</g>
	<g>
		<g id="meat_3_">
			<path class="st1" d="M34.1,14c-3.7,0-6.6,1.7-6.6,3.9c0,2.2,2.9,3.9,6.6,3.9s6.6-1.7,6.6-3.9C40.8,15.7,37.8,14,34.1,14z
				 M34.1,20.7c-3,0-5.5-1.3-5.5-2.8c0-1.5,2.5-2.8,5.5-2.8s5.5,1.3,5.5,2.8S37.1,20.7,34.1,20.7z"/>
			<path class="st1" d="M58.5,19.8c-0.3-2.5-0.3-2.9-0.6-3.7c-0.2-0.7-0.8-2-1-2.3c-0.7-1.1-1.4-2-2.2-2.8c-0.8-0.8-1.6-1.5-2.8-2.4
				c-1.1-0.8-2.3-1.6-3.6-2.2s-2.7-1.2-4.1-1.7c-1.4-0.5-3-0.8-4.5-1.1c-3.1-0.5-6.5-0.5-9.6,0c-1.5,0.2-3.1,0.6-4.5,1.1
				c-1.4,0.4-2.8,1-4.1,1.7S19.1,7.7,18,8.5c-1.1,0.8-2,1.7-2.8,2.6c-0.8,0.9-1.5,1.9-2.1,3L13,14.3c-0.4,1-0.7,1.8-0.9,2.9
				c-0.2,0.9-0.4,2-0.6,3.6c-0.6,1.4-2.1,2.2-3.7,3.1l-0.4,0.2c-1.6,0.9-4.1,2.2-4.4,5.3l0,5.4c0,1.7,0.2,3.2,0.7,4.3
				c0.3,0.8,0.7,1.2,0.9,1.4c1.2,1.7,3.4,3.2,6.4,4.3c2.3,0.9,5.2,1.5,8.4,2c2.4,0.3,5,0.5,8,0.5c0.6,0,1.1,0,1.7,0
				c0.9,0,1.8,0,2.6,0c0.7,0,1.3,0,1.9,0c1.9-0.1,3.8-0.3,5.6-0.6c2-0.4,3.7-0.9,5.3-1.7c1.7-0.8,3.3-1.8,4.8-2.9
				c1.5-1.1,2.9-2.4,4-3.6c1.3-1.5,2.3-2.9,3-4.4c0.8-1.7,1.4-3,1.8-5.9l0.3-4.1L58.5,19.8L58.5,19.8z M56.1,23.8l-0.3,4
				c-0.4,2.6-0.8,3.6-1.6,5.2c-0.6,1.3-1.5,2.6-2.6,3.9c-1,1.2-2.3,2.3-3.6,3.3c-1.4,1-2.9,1.9-4.4,2.7c-1.4,0.7-2.9,1.1-4.7,1.5
				c-1.7,0.3-3.5,0.5-5.2,0.6c-0.6,0-1.2,0-1.9,0c-1.3,0-2.7,0-4.3,0c-2.9,0-5.4-0.2-7.8-0.5c-3.1-0.4-5.7-1-7.9-1.8
				c-2.5-0.9-4.3-2.1-5.3-3.4c0,0-0.1-0.1-0.1-0.2c-0.1-0.2-0.3-0.4-0.5-0.8c-0.3-0.8-0.5-1.9-0.5-3.3l0-5.3
				c0.1-1.5,1.1-2.2,3.1-3.3L8.9,26c1.9-1,3.9-2.1,4.8-4.5l0.1-0.3c0.2-1.6,0.4-2.7,0.6-3.6c0.2-0.8,0.4-1.5,0.8-2.4
				c0.5-1,1.1-1.8,1.8-2.6c0.7-0.8,1.5-1.5,2.5-2.3c1-0.7,2.1-1.4,3.2-2c1.2-0.6,2.4-1.1,3.7-1.5c1.3-0.4,2.7-0.8,4.1-1
				c2.9-0.4,6-0.4,8.9,0c1.4,0.2,2.8,0.5,4.1,1c1.3,0.4,2.6,0.9,3.7,1.5c1.2,0.6,2.2,1.3,3.2,2c1.1,0.8,1.9,1.5,2.5,2.2
				c0.7,0.7,1.3,1.5,1.8,2.3c0.1,0.2,0.5,1.2,0.8,1.9c0.2,0.6,0.2,0.8,0.5,3.2L56.1,23.8z"/>
			<path class="st1" d="M51.3,14.4c-1-1.2-2-2.1-3.8-3.3c-1.7-1.1-3.6-2.4-5.9-3c-2-0.6-4.5-0.8-7.7-0.8c-2.8,0-5.5,0.6-7.5,1.2
				c-2.2,0.6-3.9,1.7-5.5,2.8l-0.5,0.3c-1.6,1.3-2.6,2.3-3.3,4l0,0.1c-0.5,1.8-0.6,2.7-0.6,3.6c-0.1,0.8-0.1,1.6-0.6,3.2
				c-0.8,1.8-2.4,2.7-4.4,3.8c-0.8,0.4-1.5,0.9-2.3,1.4l-0.1,0.1c-0.6,0.6-1,1.5-1,2.6c0,0.8,0.2,2,0.8,2.7
				c0.8,1.1,3.1,2.7,12.8,3.8c2.3,0.3,4.6,0.3,6.5,0.3c0.9,0,1.8,0,2.7,0l1.8,0c3.3-0.2,6.1-0.8,8.5-1.9c0.6-0.2,1.1-0.4,1.5-0.6
				c1.6-0.6,2.8-1.1,4.7-2.6l0.6-0.5c1.5-1.2,2.8-2.1,3.7-3.6c1.9-2.6,2.4-5.7,1.6-9.1C53,17.3,52.2,15.8,51.3,14.4z M49.9,26.7
				c-0.8,1.1-1.8,1.9-3.3,3.1L46,30.3c-1.6,1.3-2.5,1.7-4.1,2.3c-0.5,0.2-1,0.4-1.6,0.6c-2.2,0.9-4.8,1.5-7.7,1.7l-1.7,0
				c-0.9,0-1.8,0-2.7,0c-1.9,0-4.1,0-6.3-0.3c-9.3-1.1-10.9-2.5-11.2-2.9l-0.1-0.1c-0.3-0.3-0.3-1.6,0-2c0.7-0.5,1.4-0.9,2.1-1.2
				c2.1-1.2,4.3-2.5,5.4-5l0.1-0.2c0.5-1.9,0.6-2.9,0.6-3.7c0.1-0.8,0.1-1.5,0.6-3.1c0.5-1.2,1.2-1.9,2.4-2.9l0.4-0.2
				c1.5-0.9,3-1.9,4.8-2.4c1.9-0.5,4.4-1.1,6.9-1.1c3,0,5.3,0.2,7.1,0.7c2,0.5,3.7,1.7,5.4,2.8c1.5,1,2.3,1.7,3.1,2.6
				c1,1.6,1.6,2.7,1.9,3.8C51.8,22.2,51.4,24.7,49.9,26.7z"/>
			<path class="st1" d="M47.5,21.5c-0.3,1.2-1,2.4-2,3.5c-1.2,1.3-2.8,2.5-4.6,3.4c0.2,0.3,0.4,0.7,0.6,1c1.9-1,3.6-2.2,4.8-3.6
				c1.1-1.3,1.9-2.6,2.2-3.9c-0.3-0.1-0.5-0.3-0.8-0.5C47.7,21.5,47.6,21.5,47.5,21.5z"/>
		</g>
		<rect x="49.7" y="2" class="st2" width="24.2" height="43.1"/>
		<g id="milk_x26_eggs_3_">
			<path class="st1" d="M93.6,30c-2.8-3.4-6.7-5.5-10.4-5.5c-0.4,0-0.8,0-1.1,0.1c-1.5-1-3.2-1.6-5-1.6c-0.5,0-1,0.1-1.4,0.1V2.4
				c0-1.3-1.1-2.4-2.4-2.4H50.1c-1.3,0-2.4,1.1-2.4,2.4v42.3c0,1.3,1.1,2.4,2.4,2.4h21.4C73.1,48.3,75,49,77,49c2.1,0,4-0.8,5.7-2.2
				c1.8,0.9,3.6,1.4,5.5,1.4c2.1,0,4-0.6,5.5-1.9c2.2-1.7,3.3-4.4,3.3-7.6C96.9,35.7,95.7,32.6,93.6,30z M73.3,13.5H50.1V6.4h23.1
				V13.5z M73.3,2.3v2.9H50.1V2.3H73.3z M50.1,14.7h23.1v9.1c-1,0.5-1.9,1.2-2.7,2c0.4-0.7,0.6-1.4,0.6-2.1c0-3.4-4.1-6.1-9.3-6.1
				c-5.1,0-9.3,2.8-9.3,6.1c0,3.4,4.2,6.1,9.3,6.1c3.1,0,5.8-1,7.5-2.5c-1.6,2.3-2.6,5.3-2.6,8.6c0,3.3,1,6.3,2.6,8.6H50.1
				L50.1,14.7L50.1,14.7z M69.9,23.7c0,2.7-3.6,5-8.1,5s-8.1-2.2-8.1-5c0-2.7,3.6-5,8.1-5C66.3,18.8,69.9,21,69.9,23.7z M69.1,36
				c0-5.9,3.5-10.7,7.9-10.7s7.9,4.8,7.9,10.7c0,5.9-3.5,10.7-7.9,10.7C72.7,46.7,69.1,41.8,69.1,36z M92.2,44.5
				c-1.1,0.9-2.5,1.4-4,1.4c-1.2,0-2.5-0.3-3.8-0.9c1.8-2.4,2.9-5.5,2.9-9s-1.1-6.7-2.9-9c2.6,0.4,5.4,2.1,7.3,4.5
				c1.8,2.2,2.8,4.8,2.9,7.4C94.6,41.2,93.8,43.2,92.2,44.5z"/>
			<path class="st1" d="M72,36.4h1.2c0.1-3.2,1.5-6,3.6-7.1c-0.2-0.3-0.4-0.6-0.7-1C73.7,29.7,72.1,32.8,72,36.4z"/>
		</g>
	</g>
</g>
</svg>
