<?xml version="1.0" encoding="utf-8"?>
<!-- Generator: Adobe Illustrator 23.0.2, SVG Export Plug-In . SVG Version: 6.00 Build 0)  -->
<svg version="1.1" id="Layer_1" xmlns="http://www.w3.org/2000/svg" xmlns:xlink="http://www.w3.org/1999/xlink" x="0px" y="0px"
	 viewBox="0 0 396.85 141.73" style="enable-background:new 0 0 396.85 141.73;" xml:space="preserve">
<style type="text/css">
	.st0{fill:#58595B;}
	.st1{fill:#FBB040;}
	.st2{fill:#FFFFFF;}
	.st3{fill:#A7A9AC;}
</style>
<g>
	<g>
		<path class="st0" d="M89.92,88.28c-2.72,0-4.93,0.96-4.93,2.15c0,1.18,2.21,2.14,4.93,2.14c2.72,0,4.93-0.96,4.93-2.14
			C94.85,89.24,92.65,88.28,89.92,88.28z"/>
		<path class="st0" d="M74.9,81.74c-4.13,0-7.47,1.45-7.47,3.25c0,1.79,3.34,3.25,7.47,3.25c4.13,0,7.47-1.45,7.47-3.25
			C82.37,83.19,79.03,81.74,74.9,81.74z"/>
		<path class="st0" d="M102.29,80.81c0.22-0.26,0.43-0.52,0.65-0.78c0.31-0.37,0.66-0.56,1.01-0.67c0.59-0.51,1.2-0.99,1.84-1.43
			c-8.25-5.85-22.15-9.63-38.24-9.63c-21.42,0-38.96,6.7-44.42,16.09c0.44,0.16,0.85,0.44,1.17,0.93c0.67,1.04,1.76,1.72,2.82,2.43
			c3.25-7.36,18.66-14.33,40.42-14.33c15.22,0,27.33,3.41,34.36,7.97C102,81.2,102.13,81,102.29,80.81z"/>
		<path class="st0" d="M67.55,52.06c-34.48,0-61.49,12.64-61.49,28.77c0,31.94,27.58,57.92,61.49,57.92s61.49-25.98,61.49-57.92
			C129.04,64.7,102.03,52.06,67.55,52.06z M114.24,94.01c-0.37,0.21-0.76,0.41-1.14,0.61c-0.5,0.3-1,0.59-1.45,0.95
			c-0.32,0.23-0.67,0.32-1.03,0.34c-2.35,1.16-4.8,2.22-7.19,3.02c-0.12,0.04-0.21,0.02-0.33,0.04c-0.05,0.03-0.1,0.08-0.15,0.11
			c-9.76,3.36-22.13,5.41-35.41,5.41c-13.38,0-25.83-2.09-35.62-5.51c-0.08,0.01-0.14,0.06-0.21,0.03C28.4,97.66,25,96.62,22,94.55
			c-6.76-3.9-10.81-8.65-10.81-13.72c0-12.82,25.81-23.64,56.37-23.64s56.37,10.83,56.37,23.64c0,4.59-3.35,8.92-9.01,12.6
			C114.74,93.65,114.52,93.85,114.24,94.01z"/>
	</g>
	<path class="st1" d="M112.41,85.01c0,9.77-20.18,17.7-45.08,17.7c-24.9,0-45.08-7.92-45.08-17.7c0-9.77,20.18-17.69,45.08-17.69
		C92.23,67.31,112.41,75.24,112.41,85.01z"/>
	<path class="st2" d="M85.94,78.99c0,2-3.63,3.63-8.11,3.63c-4.48,0-8.11-1.63-8.11-3.63c0-2.01,3.63-3.63,8.11-3.63
		C82.31,75.36,85.94,76.98,85.94,78.99z"/>
	<path class="st2" d="M99.52,83.83c0,1.15-2.09,2.09-4.67,2.09c-2.58,0-4.67-0.94-4.67-2.09c0-1.16,2.09-2.09,4.67-2.09
		C97.43,81.74,99.52,82.68,99.52,83.83z"/>
</g>
<g>
	<g>
		<path class="st3" d="M43.69,40.08c0,0.39-0.1,0.69-0.29,0.9c-0.19,0.21-0.44,0.35-0.74,0.41c-0.3,0.06-0.61,0.05-0.95-0.02
			c-0.34-0.08-0.66-0.21-0.95-0.39c-0.3-0.19-0.54-0.41-0.74-0.69c-0.2-0.27-0.29-0.58-0.29-0.91c0-0.42,0-0.89,0-1.4
			s0.02-0.93,0.05-1.27c0.07-0.58,0.19-1.03,0.36-1.37c0.17-0.34,0.44-0.68,0.81-1.01c0.44-0.37,1-0.88,1.67-1.53
			c0.68-0.65,1.34-1.47,1.98-2.46c0.64-0.99,1.2-2.17,1.66-3.54c0.46-1.37,0.7-2.96,0.7-4.77c0-1.64-0.18-2.95-0.55-3.92
			c-0.36-0.97-0.81-1.71-1.33-2.22c-0.52-0.51-1.07-0.83-1.62-0.98c-0.56-0.14-1.03-0.22-1.42-0.22c-0.61,0-1.21,0.11-1.8,0.33
			c-0.59,0.22-1.12,0.58-1.59,1.09c-0.47,0.51-0.84,1.17-1.13,1.98c-0.29,0.81-0.43,1.81-0.43,2.99c0,0.56,0.05,1.14,0.14,1.74
			c0.09,0.6,0.22,1.15,0.38,1.64c0.16,0.49,0.36,0.9,0.58,1.22c0.23,0.32,0.47,0.48,0.72,0.48c0.1,0,0.19-0.02,0.27-0.05
			c0.08-0.03,0.14-0.05,0.19-0.05c0.15,0,0.27,0.05,0.34,0.14c0.08,0.09,0.11,0.21,0.11,0.34c0,0.2-0.07,0.44-0.22,0.71
			c-0.14,0.27-0.35,0.53-0.61,0.77c-0.26,0.25-0.57,0.45-0.93,0.61s-0.74,0.24-1.14,0.24c-0.56,0-1.07-0.25-1.53-0.74
			c-0.47-0.49-0.87-1.12-1.21-1.88c-0.34-0.76-0.6-1.6-0.79-2.51s-0.28-1.8-0.28-2.66c0-1.76,0.25-3.28,0.76-4.56
			c0.51-1.28,1.18-2.33,2-3.16c0.83-0.83,1.78-1.44,2.85-1.84c1.07-0.4,2.17-0.6,3.29-0.6c1.4,0,2.66,0.28,3.76,0.82
			c1.1,0.55,2.03,1.32,2.79,2.31c0.76,0.99,1.34,2.17,1.74,3.53c0.4,1.36,0.6,2.85,0.6,4.48c0,1.81-0.2,3.42-0.61,4.83
			c-0.41,1.41-0.93,2.67-1.56,3.78c-0.63,1.11-1.35,2.1-2.13,2.97c-0.79,0.87-1.55,1.67-2.3,2.4c-0.29,0.29-0.47,0.61-0.53,0.95
			c-0.07,0.35-0.1,0.7-0.1,1.05V40.08z M41.71,43.51c0.36,0,0.69,0.06,0.99,0.19c0.3,0.13,0.57,0.3,0.8,0.53
			c0.23,0.23,0.41,0.5,0.53,0.8c0.13,0.3,0.19,0.63,0.19,0.99c0,0.32-0.06,0.63-0.19,0.93c-0.13,0.3-0.3,0.55-0.53,0.77
			c-0.23,0.22-0.49,0.4-0.8,0.53s-0.63,0.2-0.99,0.2s-0.69-0.07-0.99-0.2s-0.57-0.31-0.8-0.53c-0.23-0.22-0.41-0.48-0.55-0.77
			c-0.14-0.3-0.2-0.61-0.2-0.93c0-0.71,0.25-1.31,0.74-1.79C40.4,43.75,41,43.51,41.71,43.51z"/>
	</g>
	<g>
		<path class="st3" d="M69.21,32.14c0,0.39-0.1,0.69-0.29,0.9c-0.19,0.21-0.44,0.35-0.74,0.41c-0.3,0.06-0.61,0.05-0.95-0.02
			c-0.34-0.08-0.66-0.21-0.95-0.39c-0.3-0.19-0.54-0.41-0.74-0.69c-0.2-0.27-0.29-0.58-0.29-0.91c0-0.42,0-0.89,0-1.4
			c0-0.51,0.02-0.93,0.05-1.27c0.07-0.58,0.19-1.03,0.36-1.37c0.17-0.34,0.44-0.68,0.81-1.01c0.44-0.37,1-0.88,1.67-1.53
			c0.68-0.65,1.34-1.47,1.98-2.46c0.64-0.99,1.2-2.17,1.66-3.54c0.46-1.37,0.7-2.96,0.7-4.77c0-1.64-0.18-2.95-0.55-3.92
			c-0.36-0.97-0.81-1.71-1.33-2.22c-0.52-0.51-1.07-0.83-1.62-0.98c-0.56-0.14-1.03-0.22-1.42-0.22c-0.61,0-1.21,0.11-1.8,0.33
			c-0.59,0.22-1.12,0.58-1.59,1.09c-0.47,0.51-0.84,1.17-1.13,1.98c-0.29,0.81-0.43,1.81-0.43,2.99c0,0.56,0.05,1.14,0.14,1.74
			c0.09,0.6,0.22,1.15,0.38,1.64c0.16,0.49,0.36,0.9,0.58,1.22c0.23,0.32,0.47,0.48,0.72,0.48c0.1,0,0.19-0.02,0.27-0.05
			c0.08-0.03,0.14-0.05,0.19-0.05c0.15,0,0.27,0.05,0.34,0.14c0.08,0.09,0.11,0.21,0.11,0.34c0,0.2-0.07,0.44-0.22,0.71
			c-0.14,0.27-0.35,0.53-0.61,0.77c-0.26,0.25-0.57,0.45-0.93,0.61c-0.36,0.16-0.74,0.24-1.14,0.24c-0.56,0-1.07-0.25-1.53-0.74
			c-0.47-0.49-0.87-1.12-1.21-1.88c-0.34-0.76-0.6-1.6-0.79-2.51c-0.19-0.91-0.28-1.8-0.28-2.66c0-1.76,0.25-3.28,0.76-4.56
			c0.51-1.28,1.18-2.33,2-3.16s1.78-1.44,2.85-1.84c1.07-0.4,2.17-0.6,3.29-0.6c1.4,0,2.66,0.28,3.76,0.82
			c1.1,0.55,2.03,1.32,2.79,2.31c0.76,0.99,1.34,2.17,1.74,3.53c0.4,1.36,0.6,2.85,0.6,4.48c0,1.81-0.2,3.42-0.61,4.83
			s-0.93,2.67-1.56,3.78c-0.63,1.11-1.35,2.1-2.13,2.97c-0.79,0.87-1.55,1.67-2.3,2.4c-0.29,0.29-0.47,0.61-0.53,0.95
			c-0.07,0.35-0.1,0.7-0.1,1.05V32.14z M67.23,35.56c0.36,0,0.69,0.06,0.99,0.19c0.3,0.13,0.57,0.3,0.8,0.53
			c0.23,0.23,0.41,0.5,0.53,0.8c0.13,0.3,0.19,0.63,0.19,0.99c0,0.32-0.06,0.63-0.19,0.93c-0.13,0.3-0.3,0.55-0.53,0.77
			c-0.23,0.22-0.49,0.4-0.8,0.53c-0.3,0.14-0.63,0.2-0.99,0.2s-0.69-0.07-0.99-0.2c-0.3-0.14-0.57-0.31-0.8-0.53
			c-0.23-0.22-0.41-0.48-0.55-0.77s-0.2-0.61-0.2-0.93c0-0.71,0.25-1.31,0.74-1.79C65.92,35.8,66.52,35.56,67.23,35.56z"/>
	</g>
	<g>
		<path class="st3" d="M94.73,40.08c0,0.39-0.1,0.69-0.29,0.9c-0.19,0.21-0.44,0.35-0.74,0.41c-0.3,0.06-0.61,0.05-0.95-0.02
			c-0.34-0.08-0.66-0.21-0.95-0.39c-0.3-0.19-0.54-0.41-0.74-0.69c-0.2-0.27-0.29-0.58-0.29-0.91c0-0.42,0-0.89,0-1.4
			s0.02-0.93,0.05-1.27c0.07-0.58,0.19-1.03,0.36-1.37c0.17-0.34,0.44-0.68,0.81-1.01c0.44-0.37,1-0.88,1.67-1.53
			c0.68-0.65,1.34-1.47,1.98-2.46c0.64-0.99,1.2-2.17,1.66-3.54c0.46-1.37,0.7-2.96,0.7-4.77c0-1.64-0.18-2.95-0.55-3.92
			c-0.36-0.97-0.81-1.71-1.33-2.22c-0.52-0.51-1.07-0.83-1.62-0.98c-0.56-0.14-1.03-0.22-1.42-0.22c-0.61,0-1.21,0.11-1.8,0.33
			c-0.59,0.22-1.12,0.58-1.59,1.09c-0.47,0.51-0.84,1.17-1.13,1.98c-0.29,0.81-0.43,1.81-0.43,2.99c0,0.56,0.05,1.14,0.14,1.74
			c0.09,0.6,0.22,1.15,0.38,1.64s0.36,0.9,0.58,1.22c0.23,0.32,0.47,0.48,0.72,0.48c0.1,0,0.19-0.02,0.27-0.05
			c0.08-0.03,0.14-0.05,0.19-0.05c0.15,0,0.27,0.05,0.34,0.14c0.08,0.09,0.11,0.21,0.11,0.34c0,0.2-0.07,0.44-0.22,0.71
			c-0.14,0.27-0.35,0.53-0.61,0.77c-0.26,0.25-0.57,0.45-0.93,0.61c-0.36,0.16-0.74,0.24-1.14,0.24c-0.56,0-1.07-0.25-1.53-0.74
			c-0.47-0.49-0.87-1.12-1.21-1.88c-0.34-0.76-0.6-1.6-0.79-2.51s-0.28-1.8-0.28-2.66c0-1.76,0.25-3.28,0.76-4.56
			c0.51-1.28,1.18-2.33,2-3.16c0.83-0.83,1.78-1.44,2.85-1.84c1.07-0.4,2.17-0.6,3.29-0.6c1.4,0,2.66,0.28,3.76,0.82
			c1.1,0.55,2.03,1.32,2.79,2.31c0.76,0.99,1.34,2.17,1.74,3.53c0.4,1.36,0.6,2.85,0.6,4.48c0,1.81-0.2,3.42-0.61,4.83
			c-0.41,1.41-0.93,2.67-1.56,3.78c-0.63,1.11-1.35,2.1-2.13,2.97c-0.79,0.87-1.55,1.67-2.3,2.4c-0.29,0.29-0.47,0.61-0.53,0.95
			c-0.07,0.35-0.1,0.7-0.1,1.05V40.08z M92.75,43.51c0.36,0,0.69,0.06,0.99,0.19c0.3,0.13,0.57,0.3,0.8,0.53
			c0.23,0.23,0.41,0.5,0.53,0.8c0.13,0.3,0.19,0.63,0.19,0.99c0,0.32-0.06,0.63-0.19,0.93c-0.13,0.3-0.3,0.55-0.53,0.77
			c-0.23,0.22-0.49,0.4-0.8,0.53c-0.3,0.14-0.63,0.2-0.99,0.2c-0.36,0-0.69-0.07-0.99-0.2c-0.3-0.14-0.57-0.31-0.8-0.53
			c-0.23-0.22-0.41-0.48-0.55-0.77c-0.14-0.3-0.2-0.61-0.2-0.93c0-0.71,0.25-1.31,0.74-1.79C91.44,43.75,92.04,43.51,92.75,43.51z"
			/>
	</g>
</g>
<g>
	<path class="st1" d="M168,117.54c0,4.49,0.32,8.24,0.96,11.26c-2.75,0.37-5.72,0.55-8.93,0.55c-1.56,0-2.33-0.69-2.33-2.06V72.9
		c0-1.92-0.34-3.3-1.03-4.12s-1.99-1.24-3.92-1.24c-0.09-2.38,0.53-4.21,1.85-5.49c1.33-1.28,3.48-1.92,6.46-1.92
		c2.97,0,5.06,1.42,6.25,4.26c2.84-2.84,6.25-4.26,10.23-4.26s6.98,1.79,9,5.36c3.11-3.57,6.57-5.36,10.37-5.36
		c3.8,0,6.71,1.15,8.72,3.43c2.01,2.29,3.02,5.54,3.02,9.75v44.09c0,1.92,0.34,3.3,1.03,4.12c0.69,0.82,1.99,1.24,3.92,1.24
		c0.09,2.38-0.53,4.21-1.85,5.49c-1.33,1.28-3.28,1.92-5.84,1.92c-2.56,0-4.46-0.78-5.7-2.34c-1.24-1.56-1.85-4.12-1.85-7.69V74.14
		c0-3.02-1.42-4.53-4.26-4.53c-2.47,0-4.4,1.42-5.77,4.26v43.68c0,4.49,0.32,8.24,0.96,11.26c-2.75,0.37-5.72,0.55-8.93,0.55
		c-1.56,0-2.33-0.69-2.33-2.06V74.14c0-3.02-1.42-4.53-4.26-4.53c-2.47,0-4.4,1.42-5.77,4.26V117.54z"/>
	<path class="st1" d="M218.68,116.58V73.59c0-8.97,5.29-13.46,15.87-13.46c10.58,0,15.87,5.04,15.87,15.11
		c0,4.03-0.73,7.74-2.2,11.13c-1.47,3.39-3.48,5.95-6.04,7.69l-13.19,9.07v12.5c0,3.85,1.81,5.77,5.43,5.77
		c3.62,0,5.43-2.15,5.43-6.46v-3.16l-0.41-6.46c1.19-0.28,2.4-0.41,3.64-0.41c1.24,0,2.4,0.18,3.5,0.55c2.2,0.55,3.3,1.6,3.3,3.16
		v9.89c0,3.66-1.44,6.52-4.33,8.58c-2.88,2.06-6.71,3.09-11.47,3.09C223.81,130.18,218.68,125.65,218.68,116.58z M239.84,74.83
		c0-1.83-0.55-3.27-1.65-4.33c-1.1-1.05-2.47-1.58-4.12-1.58c-3.39,0-5.08,1.42-5.08,4.26v19.64l6.59-4.95
		C238.42,85.77,239.84,81.42,239.84,74.83z"/>
	<path class="st1" d="M273.21,60.13c10.25,0,15.38,4.53,15.38,13.6v43.68c0,1.92,0.34,3.3,1.03,4.12s1.99,1.24,3.92,1.24
		c0.09,2.38-0.53,4.21-1.85,5.49c-1.33,1.28-3.23,1.92-5.7,1.92c-3.85,0-6.18-1.42-7.01-4.26c-2.84,2.84-6.18,4.26-10.03,4.26
		c-3.85,0-6.92-1.46-9.2-4.4c-2.29-2.93-3.43-6.87-3.43-11.81c0-7.51,3.16-13.19,9.48-17.03l12.5-7.42V74.69
		c0-3.85-1.81-5.77-5.43-5.77c-3.62,0-5.43,2.15-5.43,6.46v4.53l0.41,6.46c-1.19,0.27-2.4,0.41-3.64,0.41c-1.24,0-2.4-0.18-3.5-0.55
		c-2.2-0.55-3.3-1.6-3.3-3.16V71.8c0-3.66,1.44-6.53,4.33-8.59C264.63,61.16,268.45,60.13,273.21,60.13z M271.7,103.67
		c-3.02,2.02-4.53,5.38-4.53,10.1c0,4.72,1.44,7.07,4.33,7.07c2.88,0,5.15-1.65,6.8-4.95V99.28L271.7,103.67z"/>
	<path class="st1" d="M299.17,43.65c0-2.11-0.41-4.9-1.24-8.38c2.75-1.46,5.68-2.2,8.79-2.2c1.83,0,2.75,0.69,2.75,2.06v82.28
		c0,1.92,0.34,3.3,1.03,4.12c0.69,0.82,1.99,1.24,3.92,1.24c0.09,2.38-0.53,4.21-1.85,5.49c-1.33,1.28-3.27,1.92-5.84,1.92
		c-2.56,0-4.46-0.78-5.7-2.34c-1.24-1.56-1.85-4.12-1.85-7.69V43.65z"/>
	<path class="st1" d="M319.91,116.58V73.59c0-8.97,5.29-13.46,15.87-13.46c10.58,0,15.87,5.04,15.87,15.11
		c0,4.03-0.73,7.74-2.2,11.13c-1.47,3.39-3.48,5.95-6.04,7.69l-13.19,9.07v12.5c0,3.85,1.81,5.77,5.43,5.77
		c3.62,0,5.43-2.15,5.43-6.46v-3.16l-0.41-6.46c1.19-0.28,2.4-0.41,3.64-0.41c1.24,0,2.4,0.18,3.5,0.55c2.2,0.55,3.3,1.6,3.3,3.16
		v9.89c0,3.66-1.44,6.52-4.33,8.58c-2.88,2.06-6.71,3.09-11.47,3.09C325.04,130.18,319.91,125.65,319.91,116.58z M341.07,74.83
		c0-1.83-0.55-3.27-1.65-4.33c-1.1-1.05-2.47-1.58-4.12-1.58c-3.39,0-5.08,1.42-5.08,4.26v19.64l6.59-4.95
		C339.65,85.77,341.07,81.42,341.07,74.83z"/>
	<path class="st1" d="M359.06,116.58V73.59c0-8.97,5.29-13.46,15.87-13.46c10.58,0,15.87,5.04,15.87,15.11
		c0,4.03-0.73,7.74-2.2,11.13c-1.47,3.39-3.48,5.95-6.04,7.69l-13.19,9.07v12.5c0,3.85,1.81,5.77,5.43,5.77
		c3.62,0,5.43-2.15,5.43-6.46v-3.16l-0.41-6.46c1.19-0.28,2.4-0.41,3.64-0.41c1.24,0,2.4,0.18,3.5,0.55c2.2,0.55,3.3,1.6,3.3,3.16
		v9.89c0,3.66-1.44,6.52-4.33,8.58c-2.88,2.06-6.71,3.09-11.47,3.09C364.19,130.18,359.06,125.65,359.06,116.58z M380.21,74.83
		c0-1.83-0.55-3.27-1.65-4.33c-1.1-1.05-2.47-1.58-4.12-1.58c-3.39,0-5.08,1.42-5.08,4.26v19.64l6.59-4.95
		C378.79,85.77,380.21,81.42,380.21,74.83z"/>
</g>
<g>
</g>
<g>
</g>
<g>
</g>
<g>
</g>
<g>
</g>
<g>
</g>
</svg>
