<?xml version="1.0" encoding="utf-8"?>
<!-- Generator: Adobe Illustrator 23.0.2, SVG Export Plug-In . SVG Version: 6.00 Build 0)  -->
<svg version="1.1" id="Layer_1" xmlns="http://www.w3.org/2000/svg" xmlns:xlink="http://www.w3.org/1999/xlink" x="0px" y="0px"
	 viewBox="0 0 339.5 84.2" style="enable-background:new 0 0 339.5 84.2;" xml:space="preserve">
<style type="text/css">
	.st0{fill:#FFFFFF;stroke:#FFFFFF;stroke-miterlimit:10;}
	.st1{fill:#FBB040;}
	.st2{clip-path:url(#SVGID_2_);}
	.st3{fill:#FFFFFF;}
</style>
<g>
	<path class="st0" d="M71.5,12.7c16.2,16.2,16.2,42.6,0,58.8c-16.2,16.2-42.6,16.2-58.8,0s-16.2-42.6,0-58.8
		C28.9-3.6,55.2-3.6,71.5,12.7z"/>
	<path class="st1" d="M67.7,16.5c14.1,14.1,14.2,37.1,0,51.2s-37.1,14.1-51.2,0s-14.1-37.1,0-51.2C30.6,2.3,53.5,2.3,67.7,16.5z"/>
	<g>
		<g>
			<defs>
				<path id="SVGID_1_" d="M67.7,16.5c14.1,14.1,14.2,37.1,0,51.2s-37.1,14.1-51.2,0s-14.1-37.1,0-51.2C30.6,2.3,53.5,2.3,67.7,16.5
					z"/>
			</defs>
			<clipPath id="SVGID_2_">
				<use xlink:href="#SVGID_1_"  style="overflow:visible;"/>
			</clipPath>
			<g class="st2">
				<g>
					<path class="st3" d="M46.2,37.5c6.2,6.2,15,7.5,19.6,2.9c4.6-4.6,3.3-13.4-2.9-19.6c-6.2-6.2-16-8.6-20.6-3.9
						S40,31.3,46.2,37.5z"/>
					<path class="st3" d="M61.9,39.4c0,0,1.6,1.5,5.7,5.6c2,2,4.4,4.7,7.7,8c5,5.1,23.3,25,26.9,29.6c3.3,4.2,9.6-2.1,5.4-5.5
						c-7.1-5.7-25.1-21.9-30.2-26.7c-2.6-2.5-6.2-5.7-8-7.4c-3.7-3.6-4.1-4.6-4.1-4.6L61.9,39.4z"/>
				</g>
				<g>
					<path class="st3" d="M38.3,70c0,0,1.6,1.4,5.7,5.6c2,2,4.4,4.7,7.7,8c5,5.1,23.3,25,26.9,29.6c3.3,4.2,9.6-2.1,5.4-5.5
						C76.9,102,58.9,85.8,53.8,81c-2.6-2.4-6.2-5.6-8-7.4C42.1,70,41.7,69,41.7,69L38.3,70z"/>
					<path class="st3" d="M14.1,54.4l0.9-0.9c0,0,14.9,16.2,16.8,14.4c1.4-1.3-14.4-16.8-14.4-16.8l0.8-0.8c0,0,15.4,15.8,17.1,14.1
						c1.5-1.5-14.4-16.7-14.4-16.7l0.8-0.8c0,0,15.8,15.6,17,14c1.8-2.1-14.5-16.7-14.5-16.7l0.9-0.9c0,0,17.5,16,19.4,20.9
						c1.8,4.4-5.7,11.5-9.6,9.8C30,71.8,14.1,54.4,14.1,54.4z"/>
				</g>
				<g>
					<path class="st3" d="M35.5,43.1c0,0,4.6,4.8,8.7,8.9c2,2,4.5,4.6,7.8,7.9c5,5.1,23.3,25,26.9,29.6c3.3,4.2,9.6-2.1,5.4-5.5
						c-7.1-5.7-25.1-21.9-30.2-26.7c-2.6-2.5-6.2-5.6-8-7.4c-3.7-3.6-4-4.6-4-4.6L35.5,43.1z"/>
					<path class="st3" d="M41.8,49.6c0,0-19.6-19.5-23.9-23.9c-1.8-1.8,3.5-2.7,4.9-1.9c2.4,1.4,27,23.4,27,23.4s-1.1,1.6-0.9,3.4
						c0.2,2.8,0.6,2.7,1.8,4c1.2,1.4-5.4-3.3-5.4-3.3L41.8,49.6z"/>
				</g>
			</g>
		</g>
	</g>
</g>
<g>
	<path class="st3" d="M103.1,67.6l-0.5-3.8l4.9-1.3V30.1l-4.8,0.4l-0.8-4.2l9-1.6l2,3.7c1.7-1.1,3.5-2,5.5-2.6
		c2-0.6,3.8-0.9,5.5-0.9c2.3,0,4.3,0.4,6.1,1.1c1.8,0.7,3.3,1.9,4.4,3.4c1.9-1.5,3.6-2.5,5.2-3.1c1.6-0.6,3.1-1,4.4-1.1
		c1.3-0.1,2.3-0.2,2.9-0.2c2.9,0,5.3,0.5,7.3,1.5c2,1,3.5,2.4,4.5,4.3s1.5,4.3,1.5,7.2v24.7l5.5,1.3v3.9h-16.1l-0.4-3.9l5.4-1.3
		V38.4c0-2.9-0.6-5-1.9-6.4c-1.3-1.4-3.2-2.1-5.7-2.1c-1.3,0-2.9,0.2-4.6,0.7s-3.6,1.7-5.6,3.8v28.1l5.5,1.3v3.9H126l-0.4-3.9
		l5.4-1.3V38.4c0-2.9-0.6-5-1.9-6.4c-1.3-1.4-3.2-2.1-5.7-2.1c-1.8,0-3.7,0.3-5.5,1c-1.8,0.7-3.4,1.6-4.8,2.8v28.7l5.5,1.3v3.9
		L103.1,67.6L103.1,67.6z"/>
	<path class="st3" d="M189.8,68c-4.4,0-8-0.9-10.8-2.8c-2.9-1.9-5-4.4-6.4-7.7c-1.4-3.2-2.1-6.8-2.1-10.6c0-4.1,0.7-7.8,2.2-11.2
		c1.5-3.3,3.6-6,6.4-8s6.2-3,10.1-3c2.4,0,4.7,0.5,6.7,1.4c2,0.9,3.6,2.3,4.8,4s1.8,3.8,1.8,6.3c0,3.2-0.8,5.7-2.3,7.7
		c-1.6,1.9-3.6,3.4-6.1,4.4c-2.5,1-5.3,1.7-8.2,2c-2.9,0.4-5.8,0.5-8.6,0.5h-0.7c0.6,3.5,2,6.3,4.2,8.5c2.2,2.2,5.4,3.3,9.5,3.3
		c1.9,0,3.8-0.3,5.6-0.8c1.9-0.6,3.5-1.4,4.8-2.4l1.5,4.8c-1.1,0.8-2.4,1.5-3.8,2c-1.4,0.5-2.8,0.9-4.3,1.1
		C192.8,67.9,191.3,68,189.8,68z M176.3,45.8h1.5c1.7,0,3.6-0.1,5.7-0.2c2.1-0.2,4.2-0.5,6.2-1.1c2-0.6,3.6-1.5,4.9-2.8s2-3,2-5.2
		c0-2.4-0.8-4.1-2.5-5.1c-1.6-1-3.3-1.5-5.1-1.5c-2.7,0-5,0.7-6.9,2.2c-1.9,1.5-3.3,3.4-4.3,5.8C177,40.3,176.4,42.9,176.3,45.8z"/>
	<path class="st3" d="M222.4,68c-2.4,0-4.6-0.5-6.6-1.4c-2-0.9-3.6-2.3-4.9-4.1s-1.8-3.9-1.8-6.3c0-3,0.8-5.5,2.4-7.3
		c1.6-1.8,3.6-3.3,6.1-4.3c2.5-1,5.1-1.7,7.7-2.1c2.7-0.4,5.1-0.6,7.3-0.6v-5.7c0-1.9-0.7-3.4-2.1-4.6s-3.3-1.7-5.7-1.7
		c-0.9,0-1.9,0.1-3.2,0.2c-1.2,0.1-2.2,0.5-3,0.9l-1.4,4.7l-7.3-1.3c1-3.3,2.9-5.8,5.7-7.3c2.8-1.5,5.7-2.3,8.7-2.3
		c3.3,0,5.9,0.5,8,1.6c2.1,1,3.6,2.5,4.6,4.4s1.5,4.1,1.5,6.7v23.1c0,0.7,0.1,1.3,0.4,1.8s0.8,0.8,1.6,0.8c0.3,0,0.6-0.1,1-0.2
		c0.4-0.1,0.7-0.2,0.9-0.3l1,3.4c-0.6,0.7-1.3,1.1-2.2,1.4c-0.9,0.3-1.8,0.4-2.7,0.4c-1.6,0-2.8-0.4-3.6-1.1s-1.3-1.7-1.6-2.8
		c-1.3,1.3-2.9,2.2-4.6,2.9C226.5,67.6,224.5,68,222.4,68z M223,62.9c1.9,0,3.6-0.4,5.4-1.3c1.7-0.9,3.1-2.1,4.1-3.6V46.9
		c-1.5,0-3.2,0.1-5.2,0.4c-2,0.2-3.9,0.7-5.8,1.3c-1.9,0.6-3.4,1.5-4.6,2.7s-1.8,2.8-1.8,4.7c0,2,0.7,3.7,2.1,5
		C218.5,62.2,220.5,62.9,223,62.9z"/>
	<path class="st3" d="M247.3,67.6l-0.4-3.9l5.7-1.3V8.5h-4.9l-0.8-4.4l8.8-1.5l2.6,2.7v57.2l5.5,1.2v3.9
		C263.6,67.6,247.3,67.6,247.3,67.6z"/>
	<path class="st3" d="M288,68c-4.4,0-8-0.9-10.8-2.8c-2.9-1.9-5-4.4-6.4-7.7s-2.1-6.8-2.1-10.6c0-4.1,0.7-7.8,2.2-11.2
		c1.5-3.3,3.6-6,6.4-8s6.2-3,10.1-3c2.4,0,4.7,0.5,6.7,1.4c2,0.9,3.6,2.3,4.8,4s1.8,3.8,1.8,6.3c0,3.2-0.8,5.7-2.3,7.7
		c-1.5,1.9-3.6,3.4-6.1,4.4s-5.3,1.7-8.2,2c-2.9,0.4-5.8,0.5-8.6,0.5h-0.7c0.6,3.5,2,6.3,4.2,8.5c2.2,2.2,5.4,3.3,9.5,3.3
		c1.9,0,3.8-0.3,5.6-0.8c1.9-0.6,3.5-1.4,4.8-2.4l1.5,4.8c-1.1,0.8-2.4,1.5-3.8,2c-1.4,0.5-2.8,0.9-4.3,1.1
		C291,67.9,289.5,68,288,68z M274.5,45.8h1.5c1.7,0,3.6-0.1,5.7-0.2c2.1-0.2,4.2-0.5,6.2-1.1c2-0.6,3.6-1.5,4.9-2.8
		c1.3-1.3,2-3,2-5.2c0-2.4-0.8-4.1-2.5-5.1c-1.6-1-3.3-1.5-5-1.5c-2.7,0-5,0.7-6.9,2.2c-1.9,1.5-3.3,3.4-4.3,5.8
		C275.2,40.3,274.6,42.9,274.5,45.8z"/>
	<path class="st3" d="M326.8,68c-4.4,0-8-0.9-10.8-2.8c-2.9-1.9-5-4.4-6.4-7.7s-2.1-6.8-2.1-10.6c0-4.1,0.7-7.8,2.2-11.2
		c1.5-3.3,3.6-6,6.4-8s6.2-3,10.1-3c2.4,0,4.7,0.5,6.7,1.4c2,0.9,3.6,2.3,4.8,4s1.8,3.8,1.8,6.3c0,3.2-0.8,5.7-2.3,7.7
		c-1.5,1.9-3.6,3.4-6.1,4.4s-5.3,1.7-8.2,2c-2.9,0.4-5.8,0.5-8.6,0.5h-0.7c0.6,3.5,2,6.3,4.2,8.5c2.2,2.2,5.4,3.3,9.5,3.3
		c1.9,0,3.8-0.3,5.6-0.8c1.9-0.6,3.5-1.4,4.8-2.4l1.5,4.8c-1.1,0.8-2.4,1.5-3.8,2c-1.4,0.5-2.8,0.9-4.3,1.1
		C329.7,67.9,328.3,68,326.8,68z M313.3,45.8h1.5c1.7,0,3.6-0.1,5.7-0.2c2.1-0.2,4.2-0.5,6.2-1.1c2-0.6,3.6-1.5,4.9-2.8
		c1.3-1.3,2-3,2-5.2c0-2.4-0.8-4.1-2.5-5.1c-1.6-1-3.3-1.5-5-1.5c-2.7,0-5,0.7-6.9,2.2c-1.9,1.5-3.3,3.4-4.3,5.8
		C313.9,40.3,313.4,42.9,313.3,45.8z"/>
</g>
</svg>
