<?xml version="1.0" encoding="utf-8"?>
<!-- Generator: Adobe Illustrator 23.0.2, SVG Export Plug-In . SVG Version: 6.00 Build 0)  -->
<svg version="1.1" id="Layer_1" xmlns="http://www.w3.org/2000/svg" xmlns:xlink="http://www.w3.org/1999/xlink" x="0px" y="0px"
	 viewBox="0 0 345.83 99.21" style="enable-background:new 0 0 345.83 99.21;" xml:space="preserve">
<style type="text/css">
	.st0{fill:#FFFFFF;}
	.st1{fill-rule:evenodd;clip-rule:evenodd;fill:#FFFFFF;}
</style>
<g>
	<g>
		<path class="st0" d="M177.9,23.95c0.52,0.57,0.92,1.26,1.21,2.06c0.28,0.81,0.43,1.61,0.43,2.42c-1.61,0-2.81,0.28-3.59,0.85
			s-1.17,1.49-1.17,2.77v33.43c0,1.33,0.37,2.25,1.1,2.77c0.73,0.52,1.96,0.78,3.66,0.78c0,0.85-0.14,1.68-0.43,2.49
			c-0.28,0.81-0.69,1.49-1.21,2.06h-17.64c-0.47-0.57-0.85-1.26-1.14-2.06c-0.28-0.81-0.43-1.64-0.43-2.49
			c1.66,0,2.89-0.27,3.7-0.82c0.81-0.54,1.21-1.46,1.21-2.74V36.04l-12.09,30.51c-0.62,1.47-1.47,2.48-2.56,3.02
			c-1.09,0.55-2.51,0.82-4.27,0.82l-14.08-34.35v29.44c0,1.28,0.46,2.19,1.39,2.74c0.92,0.54,2.33,0.82,4.23,0.82
			c0,0.85-0.14,1.68-0.43,2.49c-0.28,0.81-0.66,1.49-1.14,2.06h-14.79c-0.47-0.57-0.85-1.26-1.14-2.06
			c-0.28-0.81-0.43-1.64-0.43-2.49c1.75,0,3.03-0.27,3.84-0.82c0.81-0.54,1.21-1.46,1.21-2.74V32.05c0-1.28-0.43-2.2-1.28-2.77
			c-0.85-0.57-2.11-0.85-3.77-0.85c0-0.81,0.14-1.61,0.43-2.42c0.28-0.81,0.69-1.49,1.21-2.06h11.17c2.23,0,4.01,0.32,5.33,0.96
			c1.33,0.64,2.39,1.91,3.2,3.8l7.54,18.56l2.84,8.82l2.7-8.82l8.96-23.33H177.9z"/>
		<path class="st0" d="M210.69,63.49c0.38,0.38,0.71,0.95,1,1.71c0.28,0.76,0.43,1.42,0.43,1.99c0,0.85-0.57,1.84-1.71,2.95
			c-1.14,1.11-2.71,2.07-4.73,2.88c-2.02,0.81-4.28,1.21-6.79,1.21c-3.51,0-6.58-0.76-9.21-2.28c-2.63-1.52-4.66-3.72-6.08-6.61
			c-1.42-2.89-2.13-6.3-2.13-10.24c0-4.03,0.77-7.56,2.31-10.6c1.54-3.03,3.66-5.37,6.37-7c2.7-1.64,5.76-2.45,9.17-2.45
			c4.31,0,7.75,1.26,10.31,3.77c2.56,2.51,3.84,6,3.84,10.45c0,2.09-0.33,3.73-1,4.94c-0.66,1.21-1.85,1.81-3.56,1.81h-15.36
			c0.28,6.88,3.22,10.31,8.82,10.31C205.36,66.34,208.13,65.39,210.69,63.49z M195.19,42.4c-1,1.64-1.54,4.37-1.64,8.21h7.18
			c0.76,0,1.26-0.26,1.49-0.78c0.24-0.52,0.36-1.33,0.36-2.42c0-2.8-0.33-4.74-1-5.83c-0.66-1.09-1.56-1.64-2.7-1.64
			C197.41,39.95,196.18,40.77,195.19,42.4z"/>
		<path class="st0" d="M219.22,56.02c2.09-1.85,5.17-2.77,9.25-2.77c1.42,0,2.88,0.14,4.37,0.43s2.71,0.66,3.66,1.14v-9.46
			c0-1.9-0.47-3.26-1.42-4.09c-0.95-0.83-2.23-1.24-3.84-1.24c-1.56,0-2.84,0.38-3.84,1.14c0.9,0.28,1.58,0.77,2.03,1.46
			c0.45,0.69,0.68,1.46,0.68,2.31c0,1.52-0.55,2.75-1.64,3.7c-1.09,0.95-2.47,1.42-4.12,1.42c-1.8,0-3.25-0.52-4.34-1.57
			c-1.09-1.04-1.64-2.39-1.64-4.05c0-1.66,0.57-3.22,1.71-4.69c1.14-1.47,2.88-2.66,5.23-3.56s5.25-1.35,8.71-1.35
			c4.69,0,8.25,0.96,10.67,2.88c2.42,1.92,3.63,4.73,3.63,8.43v18.85c0,2.28,1.09,3.65,3.27,4.13v2.28
			c-0.62,0.85-1.64,1.52-3.06,1.99c-1.42,0.47-2.87,0.71-4.34,0.71c-3.23,0-5.5-1.11-6.83-3.34c-1.09,0.95-2.42,1.74-3.98,2.38
			s-3.34,0.96-5.33,0.96c-3.56,0-6.44-0.98-8.64-2.95c-2.2-1.97-3.31-4.49-3.31-7.57C216.1,60.39,217.14,57.87,219.22,56.02z
			 M236.51,60.29c-0.52-0.33-1.15-0.62-1.88-0.85c-0.74-0.24-1.43-0.36-2.1-0.36c-1.33,0-2.42,0.42-3.27,1.24
			c-0.85,0.83-1.28,2.03-1.28,3.59c0,1.28,0.43,2.34,1.28,3.17s1.99,1.24,3.41,1.24c0.71,0,1.41-0.11,2.1-0.32
			c0.69-0.21,1.27-0.49,1.74-0.82V60.29z"/>
		<path class="st0" d="M258.59,28.07c0-1.18-0.34-2.07-1.03-2.67c-0.69-0.59-1.96-0.89-3.8-0.89v-2.84
			c1.71-0.95,3.86-1.75,6.47-2.42c2.61-0.66,4.72-1,6.33-1c1.14,0,1.94,0.24,2.42,0.71c0.47,0.47,0.71,1.3,0.71,2.49v44.38
			c0,1.47,0.3,2.49,0.89,3.06c0.59,0.57,1.6,0.85,3.02,0.85c0,1.33-0.57,2.61-1.71,3.84h-15.58c-1.09-1.18-1.64-2.47-1.64-3.84
			c1.37,0,2.37-0.3,2.99-0.89c0.62-0.59,0.92-1.6,0.92-3.02V28.07z"/>
		<path class="st0" d="M304.94,63.49c0.38,0.38,0.71,0.95,1,1.71c0.28,0.76,0.43,1.42,0.43,1.99c0,0.85-0.57,1.84-1.71,2.95
			c-1.14,1.11-2.71,2.07-4.73,2.88c-2.02,0.81-4.28,1.21-6.79,1.21c-3.51,0-6.58-0.76-9.21-2.28c-2.63-1.52-4.66-3.72-6.08-6.61
			c-1.42-2.89-2.13-6.3-2.13-10.24c0-4.03,0.77-7.56,2.31-10.6c1.54-3.03,3.66-5.37,6.37-7c2.7-1.64,5.76-2.45,9.17-2.45
			c4.31,0,7.75,1.26,10.31,3.77c2.56,2.51,3.84,6,3.84,10.45c0,2.09-0.33,3.73-1,4.94c-0.66,1.21-1.85,1.81-3.56,1.81H287.8
			c0.28,6.88,3.22,10.31,8.82,10.31C299.6,66.34,302.38,65.39,304.94,63.49z M289.43,42.4c-1,1.64-1.54,4.37-1.64,8.21h7.18
			c0.76,0,1.26-0.26,1.49-0.78c0.24-0.52,0.36-1.33,0.36-2.42c0-2.8-0.33-4.74-1-5.83c-0.66-1.09-1.56-1.64-2.7-1.64
			C291.66,39.95,290.43,40.77,289.43,42.4z"/>
		<path class="st0" d="M340.22,63.49c0.38,0.38,0.71,0.95,1,1.71c0.28,0.76,0.43,1.42,0.43,1.99c0,0.85-0.57,1.84-1.71,2.95
			c-1.14,1.11-2.71,2.07-4.73,2.88c-2.02,0.81-4.28,1.21-6.79,1.21c-3.51,0-6.58-0.76-9.21-2.28c-2.63-1.52-4.66-3.72-6.08-6.61
			c-1.42-2.89-2.13-6.3-2.13-10.24c0-4.03,0.77-7.56,2.31-10.6c1.54-3.03,3.66-5.37,6.37-7c2.7-1.64,5.76-2.45,9.17-2.45
			c4.31,0,7.75,1.26,10.31,3.77c2.56,2.51,3.84,6,3.84,10.45c0,2.09-0.33,3.73-1,4.94c-0.66,1.21-1.85,1.81-3.56,1.81h-15.36
			c0.28,6.88,3.22,10.31,8.82,10.31C334.88,66.34,337.66,65.39,340.22,63.49z M324.71,42.4c-1,1.64-1.54,4.37-1.64,8.21h7.18
			c0.76,0,1.26-0.26,1.49-0.78c0.24-0.52,0.36-1.33,0.36-2.42c0-2.8-0.33-4.74-1-5.83c-0.66-1.09-1.56-1.64-2.7-1.64
			C326.94,39.95,325.71,40.77,324.71,42.4z"/>
	</g>
	<path class="st1" d="M100.6,42.22c0-0.2,0-0.45-0.01-0.66C99.96,21.36,78.65,5.54,52.06,5.54l-0.59-0.01
		c-0.3,0-0.61,0.01-0.92,0.03C23.78,6.15,3.26,22.49,2.86,42.79H2.83l0.03,0.76c0,0.06,0,0.12,0.01,0.17v0.05
		c0.63,20.21,21.3,36.04,47.88,36.05l1.48-0.01c2.3-0.06,4.44-0.22,6.55-0.48c0.06,0.02,0.13,0.05,0.2,0.08
		c0.44,0.17,1.06,0.45,1.78,0.82c1.32,0.68,3.15,1.73,5.43,3.11c1.37,0.82,2.82,1.7,4.27,2.59c2.93,1.8,5.97,3.65,8.53,5.07
		l1.14,0.59c2.08,1.1,3.72,1.96,5.9,2.1h0.04h0.03c0.39,0,0.72-0.04,1.11-0.12l0.25-0.06c1.97-0.42,3.25-2.94,2.99-4.35
		c-0.08-1.77-0.74-2.99-1.49-4.41L88.6,84.1c-0.95-1.67-2.15-3.53-3.3-5.29c-1.94-2.91-3.4-5.25-4.22-6.75
		C93.3,64.98,100.57,53.89,100.6,42.22z M67.92,47.19c-2.71,1.81-6.81,3.29-10.95,3.97c-2.93,0.48-6.76,1.84-9.12,3.23
		c-2.44,1.44-2.69,5.2-2.69,5.24c0,0.03-0.01,0.06-0.01,0.09c0.05,0.28,0.07,0.56,0.07,0.82c0,2.97-2.41,5.39-5.38,5.39
		c-2.65,0-4.85-1.92-5.3-4.45c-2.86-0.12-5.15-2.49-5.15-5.39c0-2.97,2.41-5.39,5.38-5.39c0.8,0,1.59,0.19,2.34,0.56
		c2.46-0.25,3.66-4.89,3.67-4.94c0.55-1.84,1.05-3.64,1.55-5.43c0.87-3.13,1.78-6.37,2.84-9.48c1.34-3.9,3.37-8.14,8.27-9.98
		c1.84-0.69,3.8-1.04,5.84-1.04c7.1,0,13.14,4.08,15.03,10.16C76.21,36.69,73.65,43.37,67.92,47.19z"/>
</g>
<g>
</g>
<g>
</g>
<g>
</g>
<g>
</g>
<g>
</g>
<g>
</g>
</svg>
