<?xml version="1.0" encoding="utf-8"?>
<!-- Generator: Adobe Illustrator 23.0.2, SVG Export Plug-In . SVG Version: 6.00 Build 0)  -->
<svg version="1.1" id="Layer_1" xmlns="http://www.w3.org/2000/svg" xmlns:xlink="http://www.w3.org/1999/xlink" x="0px" y="0px"
	 viewBox="0 0 371.9 39.7" style="enable-background:new 0 0 371.9 39.7;" xml:space="preserve">
<style type="text/css">
	.st0{fill-rule:evenodd;clip-rule:evenodd;fill:#FFFFFF;}
	.st1{fill:#FFFFFF;}
</style>
<path class="st0" d="M72.7,6.5c0.1-1-0.6-2-0.5-3C40.6,4.1,17.9,6.9,0,19.6c16.7,11.4,38.1,15,70.6,18C71.1,26.4,71.9,19,72.7,6.5z"
	/>
<g>
	<path class="st0" d="M294.3,3.3c-14.3,0-27.1-0.1-38.7,0.1c-0.1,1,0,2,0.5,3c5,10.5,8.7,21.9,4.2,31.9c10.6,0.6,22,0.9,34,0.9
		C294.3,26.7,294.3,16,294.3,3.3z"/>
	<path class="st0" d="M361.8,3.3c-22.9-1.4-45.8-1.1-67.6,0v22c3.6,0.1,0-10.2,11.6-8.8c13.6,1.6,30.1,0.6,49.8,0.5
		c4.6-0.1,7.3,0.4,11.7,1.9C376.9,22,369.5,4.1,361.8,3.3z M309.8,11.1c-0.8,0-1.4-0.6-1.4-1.4s0.6-1.4,1.4-1.4s1.4,0.6,1.4,1.4
		S310.6,11.1,309.8,11.1z M332.4,11.1c-0.8,0-1.4-0.6-1.4-1.4c0-0.8,0.6-1.4,1.4-1.4c0.8,0,1.4,0.6,1.4,1.4
		C333.8,10.5,333.1,11.1,332.4,11.1z M354.9,11.1c-0.8,0-1.4-0.6-1.4-1.4s0.6-1.4,1.4-1.4c0.8,0,1.4,0.6,1.4,1.4
		C356.3,10.5,355.7,11.1,354.9,11.1z"/>
</g>
<g>
	<path class="st1" d="M103.4,29.8c-0.4,0.3-0.9,0.6-1.5,0.8c-0.6,0.2-1.4,0.3-2.2,0.3c-1,0-1.9-0.1-2.6-0.4
		c-0.7-0.3-1.2-0.7-1.4-1.4c-1.6-4-3-7.4-4.1-10.3c-1.1-2.8-2-5.3-2.6-7.3h-0.3c-0.1,2.6-0.2,5-0.3,7.3c-0.1,2.2-0.2,4.4-0.3,6.5
		s-0.2,4.2-0.3,6.4s-0.2,4.5-0.4,7c-0.4,0.1-0.9,0.2-1.5,0.4c-0.6,0.1-1.2,0.2-1.9,0.2c-2.6,0-3.9-1-3.9-3c0-0.6,0-1.6,0.1-2.9
		s0.1-2.9,0.2-4.6s0.2-3.7,0.4-5.8s0.3-4.2,0.4-6.3s0.3-4.2,0.4-6.3s0.3-4,0.4-5.8c0.3-0.4,0.9-0.8,1.7-1.2c0.8-0.4,1.9-0.6,3.3-0.6
		c1.5,0,2.7,0.3,3.6,0.7c0.9,0.5,1.6,1.3,2.1,2.5c0.5,1.2,1.1,2.6,1.6,4c0.6,1.5,1.1,3,1.7,4.5s1.2,3,1.7,4.5s1.1,2.9,1.6,4.2h0.2
		c1.3-3.7,2.7-7.3,4-10.7c1.3-3.5,2.5-6.4,3.4-8.8c0.5-0.2,1.1-0.4,1.8-0.6s1.5-0.2,2.3-0.2c1.4,0,2.6,0.2,3.5,0.6
		c0.9,0.4,1.4,1.1,1.6,2c0.2,0.8,0.3,1.9,0.5,3.6s0.4,3.5,0.6,5.6c0.2,2.1,0.4,4.3,0.6,6.7c0.2,2.4,0.4,4.6,0.5,6.8s0.3,4.2,0.4,6
		c0.1,1.8,0.2,3.2,0.2,4.3c-0.5,0.3-1.1,0.5-1.6,0.7c-0.6,0.2-1.3,0.2-2.1,0.2c-1,0-1.9-0.2-2.7-0.6c-0.8-0.4-1.2-1.2-1.3-2.3
		c-0.2-2.5-0.3-4.9-0.4-7.3c-0.1-2.4-0.2-4.6-0.3-6.8c-0.1-2.1-0.2-4.1-0.2-5.9s-0.1-3.3-0.2-4.6h-0.3c-0.6,1.9-1.5,4.2-2.6,7
		C106.5,21.6,105.1,25.3,103.4,29.8z"/>
	<path class="st1" d="M130.9,28.2c0.6,2,1.6,3.5,3.1,4.4s3.3,1.4,5.5,1.4c1.6,0,3.2-0.3,4.6-0.7c1.4-0.5,2.5-1,3.4-1.6
		c0.6,0.3,1,0.8,1.4,1.3c0.4,0.5,0.5,1.1,0.5,1.8c0,0.8-0.3,1.5-0.8,2.1s-1.3,1.1-2.2,1.6s-2,0.8-3.3,1c-1.3,0.2-2.6,0.4-4.1,0.4
		c-2.3,0-4.4-0.3-6.3-0.9c-1.9-0.6-3.5-1.6-4.9-2.9s-2.4-2.9-3.2-4.8c-0.8-1.9-1.1-4.1-1.1-6.6c0-2.4,0.4-4.6,1.1-6.4s1.8-3.3,3-4.5
		s2.8-2.1,4.4-2.7s3.5-0.9,5.4-0.9c1.9,0,3.7,0.3,5.3,0.9c1.6,0.6,3,1.5,4.1,2.5c1.1,1.1,2,2.4,2.7,3.9s1,3.2,1,4.9
		c0,1.1-0.3,1.9-0.9,2.5c-0.6,0.5-1.4,0.9-2.4,1.1L130.9,28.2z M137.5,15.6c-1.9,0-3.5,0.6-4.8,1.9s-2,3.1-2.2,5.5l13.1-2
		c-0.2-1.5-0.7-2.7-1.7-3.8C140.8,16.2,139.4,15.6,137.5,15.6z"/>
	<path class="st1" d="M165.6,10c3.9,0,6.9,0.8,9.2,2.5c2.3,1.6,3.5,4.2,3.5,7.7v13.6c0,0.9-0.2,1.7-0.7,2.2s-1.1,1-1.8,1.5
		c-1.1,0.7-2.5,1.2-4.2,1.6s-3.6,0.6-5.8,0.6c-3.9,0-7-0.8-9.3-2.3c-2.3-1.5-3.4-3.8-3.4-6.8c0-2.6,0.8-4.6,2.5-6s4.1-2.3,7.3-2.6
		l8.1-0.8v-1.1c0-1.5-0.5-2.6-1.6-3.3s-2.6-1.1-4.6-1.1c-1.5,0-3,0.2-4.5,0.6c-1.5,0.4-2.8,0.8-3.9,1.4c-0.4-0.3-0.8-0.7-1.1-1.3
		s-0.4-1.1-0.4-1.7c0-0.8,0.2-1.4,0.6-1.9c0.4-0.5,1-0.9,1.8-1.3c1.1-0.5,2.4-0.8,3.9-1.1C162.7,10.1,164.2,10,165.6,10z M165.9,34
		c1.1,0,2.2-0.1,3.1-0.3c0.9-0.2,1.6-0.5,2.1-0.8v-6.5l-5.7,0.5c-1.6,0.2-2.8,0.5-3.6,1c-0.8,0.5-1.2,1.4-1.2,2.5s0.4,2,1.3,2.6
		C162.6,33.7,164,34,165.9,34z"/>
	<path class="st1" d="M190.6,39c-0.6,0.1-1.3,0.2-2,0.2c-1.4,0-2.5-0.3-3.1-0.8c-0.6-0.5-1-1.4-1-2.7V0.5c0.3-0.1,0.8-0.2,1.4-0.3
		c0.6-0.1,1.3-0.1,2-0.1c1.4,0,2.5,0.3,3.1,0.8c0.6,0.5,1,1.4,1,2.7v35.3C191.7,38.8,191.2,38.9,190.6,39z"/>
	<path class="st1" d="M204.5,28.2c0.5,2,1.6,3.5,3.1,4.4s3.3,1.4,5.5,1.4c1.6,0,3.2-0.3,4.6-0.7s2.5-1,3.4-1.6
		c0.5,0.3,1,0.8,1.4,1.3c0.4,0.5,0.5,1.1,0.5,1.8c0,0.8-0.3,1.5-0.8,2.1s-1.3,1.1-2.2,1.6c-0.9,0.4-2,0.8-3.3,1
		c-1.3,0.2-2.6,0.4-4.1,0.4c-2.3,0-4.4-0.3-6.3-0.9c-1.9-0.6-3.5-1.6-4.9-2.9s-2.4-2.9-3.2-4.8c-0.8-1.9-1.1-4.1-1.1-6.6
		c0-2.4,0.4-4.6,1.1-6.4s1.8-3.3,3-4.5s2.8-2.1,4.5-2.7s3.5-0.9,5.4-0.9c1.9,0,3.7,0.3,5.3,0.9c1.6,0.6,3,1.5,4.1,2.5
		c1.1,1.1,2,2.4,2.7,3.9s1,3.2,1,4.9c0,1.1-0.3,1.9-0.9,2.5c-0.6,0.5-1.4,0.9-2.4,1.1L204.5,28.2z M211,15.6c-1.9,0-3.5,0.6-4.8,1.9
		s-2,3.1-2.2,5.5l13.1-2c-0.2-1.5-0.7-2.7-1.7-3.8C214.4,16.2,212.9,15.6,211,15.6z"/>
	<path class="st1" d="M234.5,28.2c0.5,2,1.6,3.5,3.1,4.4s3.3,1.4,5.5,1.4c1.6,0,3.2-0.3,4.6-0.7s2.5-1,3.4-1.6
		c0.5,0.3,1,0.8,1.4,1.3c0.4,0.5,0.5,1.1,0.5,1.8c0,0.8-0.3,1.5-0.8,2.1s-1.3,1.1-2.2,1.6c-0.9,0.4-2,0.8-3.3,1
		c-1.3,0.2-2.6,0.4-4.1,0.4c-2.3,0-4.4-0.3-6.3-0.9c-1.9-0.6-3.5-1.6-4.9-2.9s-2.4-2.9-3.2-4.8c-0.8-1.9-1.1-4.1-1.1-6.6
		c0-2.4,0.4-4.6,1.1-6.4s1.8-3.3,3-4.5s2.8-2.1,4.5-2.7s3.5-0.9,5.4-0.9c1.9,0,3.7,0.3,5.3,0.9c1.6,0.6,3,1.5,4.1,2.5
		c1.1,1.1,2,2.4,2.7,3.9s1,3.2,1,4.9c0,1.1-0.3,1.9-0.9,2.5c-0.6,0.5-1.4,0.9-2.4,1.1L234.5,28.2z M241,15.6c-1.9,0-3.5,0.6-4.8,1.9
		s-2,3.1-2.2,5.5l13.1-2c-0.2-1.5-0.7-2.7-1.7-3.8C244.4,16.2,243,15.6,241,15.6z"/>
</g>
</svg>
