<?xml version="1.0" encoding="UTF-8" standalone="no"?>
<!-- Created with Inkscape (http://www.inkscape.org/) -->

<svg
   xmlns:dc="http://purl.org/dc/elements/1.1/"
   xmlns:cc="http://creativecommons.org/ns#"
   xmlns:rdf="http://www.w3.org/1999/02/22-rdf-syntax-ns#"
   xmlns:svg="http://www.w3.org/2000/svg"
   xmlns="http://www.w3.org/2000/svg"
   xmlns:sodipodi="http://sodipodi.sourceforge.net/DTD/sodipodi-0.dtd"
   xmlns:inkscape="http://www.inkscape.org/namespaces/inkscape"
   width="210mm"
   height="297mm"
   viewBox="0 0 210 297"
   version="1.1"
   id="svg8"
   inkscape:version="0.92.2 (5c3e80d, 2017-08-06)"
   sodipodi:docname="meelee_red3.svg">
  <defs
     id="defs2" />
  <sodipodi:namedview
     id="base"
     pagecolor="#ffffff"
     bordercolor="#666666"
     borderopacity="1.0"
     inkscape:pageopacity="0.0"
     inkscape:pageshadow="2"
     inkscape:zoom="1"
     inkscape:cx="578.18915"
     inkscape:cy="645.85036"
     inkscape:document-units="mm"
     inkscape:current-layer="layer1"
     showgrid="false"
     inkscape:window-width="1920"
     inkscape:window-height="1017"
     inkscape:window-x="-8"
     inkscape:window-y="-8"
     inkscape:window-maximized="1" />
  <metadata
     id="metadata5">
    <rdf:RDF>
      <cc:Work
         rdf:about="">
        <dc:format>image/svg+xml</dc:format>
        <dc:type
           rdf:resource="http://purl.org/dc/dcmitype/StillImage" />
        <dc:title></dc:title>
      </cc:Work>
    </rdf:RDF>
  </metadata>
  <g
     inkscape:label="Layer 1"
     inkscape:groupmode="layer"
     id="layer1">
    <ellipse
       id="path3699"
       cx="104.69941"
       cy="156.39287"
       style="stroke-width:0.27502334;fill:#00ff00"
       rx="103.94344"
       ry="105.07737" />
    <ellipse
       style="fill:#00ff00;stroke-width:0.26458332"
       id="path3701"
       cx="109.99107"
       cy="155.6369"
       rx="60.854164"
       ry="46.869045" />
    <ellipse
       style="fill:#ffffff;stroke-width:0.41586062"
       id="path3710"
       cx="104.73453"
       cy="156.069"
       rx="97.344055"
       ry="98.103798" />
    <path
       style="fill:#ff0000;stroke-width:1.41421354"
       d="M 361.86231,986.25904 C 226.7444,973.21889 110.00416,894.22287 47.886484,773.79724 6.4343919,693.43536 -6.3657407,600.00869 11.790599,510.33763 35.51223,393.18056 113.58201,290.69946 220.39488,236.50575 c 120.38282,-61.0787 265.58365,-54.75036 380.42345,16.58015 34.74961,21.58404 78.135,60.43331 101.82491,91.17869 43.1933,56.05738 69.72267,117.44478 80.92555,187.25697 2.77342,17.28292 3.19565,25.17662 3.18389,59.5233 -0.0113,31.06191 -0.56098,43.10387 -2.55297,55.86143 -11.28765,72.29136 -36.18978,131.10092 -79.94384,188.79751 -15.11047,19.92554 -52.40887,56.82883 -73.03195,72.25831 -68.89209,51.54271 -143.19795,77.33176 -227.68839,79.02295 -15.55635,0.31138 -34.3093,-0.0153 -41.67322,-0.72602 z m 87.63516,-28.88689 c 76.69732,-12.12267 145.43974,-46.01697 200.30828,-98.76445 20.95384,-20.14383 35.74826,-37.81263 51.50719,-61.51443 41.86874,-62.97155 62.54844,-131.56265 62.54844,-207.46263 0,-100.85236 -38.26128,-193.29101 -109.1789,-263.77456 -88.15524,-87.61565 -211.55997,-124.54897 -332.97825,-99.65578 -32.01945,6.56463 -56.34433,14.98612 -87.87432,30.42287 -111.78107,54.7268 -188.25389,162.89059 -203.728771,288.15569 -2.62224,21.22633 -2.953743,63.86347 -0.662094,85.15687 15.44795,143.53835 112.415255,265.10959 248.570455,311.64133 27.11344,9.26617 49.63778,14.13129 85.22095,18.40722 12.09588,1.45355 72.02533,-0.3611 86.26702,-2.61213 z"
       id="path3734"
       inkscape:connector-curvature="0"
       transform="scale(0.26458333)" />
    <path
       style="fill:#d40000;stroke-width:2"
       d="M 341.3228,982.71969 C 258.1315,969.77929 186.02893,934.31393 126.19198,876.90243 63.089338,816.35763 22.688224,737.72295 8.8523812,648.51857 4.2666406,618.95273 4.2709344,562.26467 8.8611368,532.92499 18.352435,472.25843 39.030622,418.88929 72.101142,369.70637 200.30936,179.03341 460.92004,138.46423 638.34808,281.55889 c 72.91812,58.80803 120.97998,137.90044 141.15982,232.2979 4.98276,23.30832 5.34938,28.45102 5.41824,76 0.0656,45.26364 -0.43566,53.5128 -4.45602,73.34052 -15.0566,74.25616 -46.25746,138.39132 -92.03962,189.19268 -37.77682,41.91838 -76.64684,71.69272 -123.4305,94.54746 -41.89158,20.46486 -81.20646,32.00296 -125.42118,36.80852 -26.30704,2.85922 -76.6578,2.33332 -98.25602,-1.02628 z M 425,959.95183 c 48.06518,-3.12316 88.68,-14.5021 136,-38.10274 35.0577,-17.48488 59.5217,-34.85746 88.70554,-62.9923 60.22872,-58.06384 95.5823,-124.86248 110.61452,-209 1.71606,-9.60508 2.67994,-31.18478 2.67994,-60 0,-46.91128 -1.24866,-58.4851 -10.18084,-94.36602 C 740.38774,445.55333 715.13098,395.36897 682.1303,355.03436 664.97398,334.06527 629.4783,300.72368 607.93188,285.33872 585.00572,268.96858 535.97264,244.25545 510,235.98013 c -63.6764,-20.28837 -127.85286,-23.5589 -191.95412,-9.78228 -28.06896,6.03257 -52.0698,14.37495 -79.75474,27.72172 -106.78506,51.48051 -178.78717,143.47406 -204.397968,261.14922 -6.672606,30.65894 -7.848724,102.86842 -2.21166,135.788 12.450158,72.70698 42.48238,134.76804 92.390788,190.92392 8.49235,9.55542 11.9277,15.0224 11.9277,18.9816 0,4.96392 0.58004,5.4499 5.40401,4.52774 4.39934,-0.84098 7.46687,0.81902 16.5,8.92898 41.65083,37.39418 112.93829,71.10764 172.29171,81.4806 38.2091,6.67768 49.60806,7.18894 94.80428,4.2522 z"
       id="path3768"
       inkscape:connector-curvature="0"
       transform="scale(0.26458333)" />
    <path
       style="fill:#d40000;stroke-width:0.3783057"
       d="m 197.7837,245.26909 c -1.98635,-0.21723 -3.1288,-0.54021 -3.80561,-1.07587 -0.53197,-0.42101 -12.11899,-11.24414 -25.74899,-24.05143 -55.51154,-52.16092 -63.39899,-59.47823 -64.11237,-59.47823 -0.26596,0 -12.692251,12.26648 -27.61397,27.25886 -32.993932,33.15017 -51.419621,51.46702 -55.251992,54.92566 -2.860425,2.58149 -2.887578,2.59556 -4.611448,2.38857 -0.953746,-0.11457 -3.955893,-0.31141 -6.671435,-0.43755 l -4.9373584,-0.22934 -1.4098954,-1.27687 -1.4098958,-1.27687 -0.3962746,-5.09867 c -0.353446,-4.54758 -0.3200372,-5.25327 0.3091174,-6.52937 1.1108186,-2.25303 1.5303522,-2.64918 54.7369388,-51.68727 18.406787,-16.96472 33.521555,-30.96472 33.588368,-31.11116 0.06681,-0.14643 -19.669035,-3.09716 -37.912189,-20.73434 C 1.5642124,77.575891 19.913297,97.834618 9.0779932,80.099947 L 3.8395106,71.119691 c 0,0 -1.8483687,-24.183901 -3.01425769,-19.659819 -0.4098995,1.590562 4.51039179,-10.546939 4.51039179,-10.546939 0,0 -3.2245608,0.01235 0,0 2.975271,-0.01135 -2.332228,-0.995637 0,0 9.2473253,3.947737 31.4053443,33.756482 49.7466073,48.058594 14.721625,11.479593 35.960384,35.366143 46.998028,44.704543 5.08705,4.30389 10.53822,-10.4062 10.96152,-8.57087 0,0 3.47154,-2.68463 7.00152,-5.61858 l 6.41816,-5.33442 -0.16412,-5.24414 c -0.15016,-4.79843 -0.0718,-5.55869 0.92106,-8.944589 0.98572,-3.361243 1.29538,-3.927376 3.37845,-6.176437 6.11722,-6.604677 24.38678,-23.755259 39.59422,-37.169153 9.13395,-8.056705 10.23887,-8.918329 11.31495,-8.823478 2.14318,0.188912 2.26886,1.040553 0.57624,3.904566 -1.68777,2.855803 -2.72339,3.889307 -19.18094,19.141591 -14.39231,13.33829 -22.90075,21.661321 -22.90075,22.401675 0,0.599474 2.91317,6.009916 3.23595,6.009916 0.15653,0 9.05414,-8.298481 19.77242,-18.441059 22.91403,-21.683266 26.51032,-24.970443 27.3185,-24.970443 0.33219,0 0.98526,0.683096 1.45129,1.517991 l 0.84732,1.517991 -1.7732,2.31089 c -2.10947,2.749131 -6.37726,6.861435 -27.90799,26.891179 -8.93947,8.316277 -16.2536,15.26052 -16.2536,15.43166 0,0.55914 5.07938,5.62409 5.64012,5.62409 0.30038,0 0.79649,-0.29946 1.10247,-0.66546 0.52337,-0.62605 16.99346,-16.651007 36.98784,-35.988231 l 8.88715,-8.595029 1.38997,1.209818 c 1.36192,1.185403 1.38072,1.241796 0.93163,2.794187 -0.399,1.379167 -2.87557,3.935568 -19.12177,19.738083 -10.26488,9.984535 -20.22493,19.711542 -22.13344,21.615572 -3.8688,3.85971 -3.84944,3.63203 -0.45274,5.32538 l 1.87734,0.93591 18.587,-17.037973 c 10.22285,-9.370878 20.71234,-18.932296 23.30997,-21.247575 l 4.72295,-4.209603 1.28679,0.463912 c 1.87186,0.674855 2.30372,1.581771 1.28827,2.705398 -2.15591,2.385553 -41.60149,40.942401 -45.40281,44.379851 -3.66864,3.31746 -8.54847,6.44037 -11.09041,7.09739 -3.48824,0.90164 -9.59782,0.60174 -14.53313,-0.71335 -0.44455,-0.11847 -3.88551,3.00761 -11.2525,10.22274 -5.83667,5.71636 -10.61213,10.55302 -10.61213,10.74816 0,0.19514 20.43208,17.94004 45.40463,39.43312 43.78765,37.68664 45.46321,39.17631 47.04912,41.82953 l 1.64447,2.7512 -0.66608,3.45604 c -0.85967,4.46046 -2.56296,7.62448 -4.37661,8.12995 -0.69616,0.19402 -2.45183,0.73827 -3.90147,1.20939 -2.34986,0.76374 -2.94359,0.82297 -5.47421,0.54623 z"
       id="path3770"
       inkscape:connector-curvature="0"
       sodipodi:nodetypes="ccsssccccccscscsccscccsscccccsssssssssccsssscccscscccscccccccssscccccc" />
  </g>
</svg>
